<?xml version="1.0" standalone="no"?>
 <!DOCTYPE svg PUBLIC "-//W3C//DTD SVG 1.1//EN" 
 "http://www.w3.org/Graphics/SVG/1.1/DTD/svg11.dtd"> 
<svg xmlns="http://www.w3.org/2000/svg" version="1.1" 
    width="29.7002cm" height="21.0007cm" viewBox="0 0 116930 82680 ">
<title>SVG Picture created as Pi_Blackbox-NPTH-drl_map.svg date 2020/01/14 13:42:08 </title>
  <desc>Picture generated by PCBNEW </desc>
<g style="fill:#000000; fill-opacity:1;stroke:#000000; stroke-opacity:1;
stroke-linecap:round; stroke-linejoin:round; "
 transform="translate(0 0) scale(1 1)">
</g>
<g style="fill:#000000; fill-opacity:0.0; 
stroke:#000000; stroke-width:-0.000393701; stroke-opacity:1; 
stroke-linecap:round; stroke-linejoin:round;">
</g>
<g style="fill:#000000; fill-opacity:0.0; 
stroke:#000000; stroke-width:59.0551; stroke-opacity:1; 
stroke-linecap:round; stroke-linejoin:round;">
<path d="M23787 60996
L23787 15071
" />
<path d="M36192 28944
L36194 26837
" />
<path d="M35799 28944
L35800 26849
" />
</g>
<g style="fill:#000000; fill-opacity:0.0; 
stroke:#000000; stroke-width:39.3701; stroke-opacity:1; 
stroke-linecap:round; stroke-linejoin:round;">
<path d="M40925.2 32755.6 A196.851 196.851 0.0 1 0 41318.9 32756.3 " />
</g>
<g style="fill:#000000; fill-opacity:0.0; 
stroke:#000000; stroke-width:59.0551; stroke-opacity:1; 
stroke-linecap:round; stroke-linejoin:round;">
<path d="M51212 36267
L49035 34086
" />
</g>
<g style="fill:#000000; fill-opacity:0.0; 
stroke:#000000; stroke-width:39.3701; stroke-opacity:1; 
stroke-linecap:round; stroke-linejoin:round;">
<path d="M38314 29772
L36432 29772
" />
<path d="M36433 30212
L38133 30212
" />
<path d="M39782 30631
L39173 30631
" />
<path d="M39783 31070
L38992 31070
" />
</g>
<g style="fill:#000000; fill-opacity:0.0; 
stroke:#000000; stroke-width:59.0551; stroke-opacity:1; 
stroke-linecap:round; stroke-linejoin:round;">
<path d="M48767 34354
L51070 36661
" />
</g>
<g style="fill:#000000; fill-opacity:0.0; 
stroke:#000000; stroke-width:39.3701; stroke-opacity:1; 
stroke-linecap:round; stroke-linejoin:round;">
<path d="M41318.9 30252.3 A196.851 196.851 0.0 1 0 40925.2 30251.6 " />
<path d="M41320 32756
L41318 30252
" />
<path d="M40926 32755
L40925 30251
" />
<path d="M39783.5 31070.9 A219.944 219.944 0.0 0 0 39782.9 30631 " />
<path d="M38314 29772
L39173 30629
" />
<path d="M38133 30212
L38992 31070
" />
<path d="M36432.5 29772.7 A219.944 219.944 0.0 0 0 36433.1 30212.6 " />
</g>
<g style="fill:#000000; fill-opacity:0.0; 
stroke:#000000; stroke-width:59.0551; stroke-opacity:1; 
stroke-linecap:round; stroke-linejoin:round;">
<path d="M35799.6 28944.9 A196.496 196.496 0.0 0 0 36192.6 28944.9 " />
<path d="M36194.6 26837.7 A197.204 197.204 0.0 0 0 35800.5 26849.5 " />
</g>
<g style="fill:#000000; fill-opacity:0.0; 
stroke:#000000; stroke-width:39.3701; stroke-opacity:1; 
stroke-linecap:round; stroke-linejoin:round;">
<path d="M33816 24094
L34236 24515
" />
<path d="M33425 24326
L34007 24909
" />
<path d="M32116 22205
L32976 22204
" />
<path d="M32106 21811
L33200 21811
" />
<path d="M32106.3 21811.1 A197.204 197.204 0.0 0 0 32116.1 22205.1 " />
<path d="M32976 22204
L33422 22653
" />
<path d="M33200 21811
L33814 22425
" />
<path d="M33425 24326
L33422 22653
" />
<path d="M33816 24094
L33814 22425
" />
<path d="M35053 24515
L34236 24515
" />
<path d="M35064 24909
L34007 24909
" />
<path d="M35065 24909.4 A197.204 197.204 0.0 0 0 35053 24515.4 " />
</g>
<g style="fill:#000000; fill-opacity:0.0; 
stroke:#000000; stroke-width:59.0551; stroke-opacity:1; 
stroke-linecap:round; stroke-linejoin:round;">
<path d="M43941.6 36608.4 A197.205 197.205 0.0 0 0 44211.9 36321.5 " />
<path d="M43941 36608
L42040 34712
" />
<path d="M44211 36321
L42311 34425
" />
<path d="M42311 34425.2 A197.204 197.204 0.0 0 0 42040.7 34712.2 " />
<path d="M49035.4 34086.6 A189.304 189.304 0.0 0 0 48767.7 34354.3 " />
<path d="M58527.6 36661.4 A197.204 197.204 0.0 0 0 58515.7 36267.4 " />
<path d="M91015 62673
L25644 62673
" />
<path d="M92716 14976
L92716 60874
" />
<path d="M90956 13216
L25562 13216
" />
<path d="M23787.9 60997 A1764.64 1764.64 0.0 0 0 25644.2 62673.2 " />
<path d="M25562.5 13216.5 A1772.04 1772.04 0.0 0 0 23787.4 15071 " />
<path d="M92716.5 14976.4 A1759.68 1759.68 0.0 0 0 90957 13216.6 " />
<path d="M91015.5 62673.2 A1756.44 1756.44 0.0 0 0 92716.5 60874.3 " />
<path d="M51070 36661
L58527 36661
" />
<path d="M51212 36267
L58515 36267
" />
</g>
<g style="fill:#000000; fill-opacity:0.0; 
stroke:#000000; stroke-width:78.7402; stroke-opacity:1; 
stroke-linecap:round; stroke-linejoin:round;">
</g>
<g style="fill:#000000; fill-opacity:0.0; 
stroke:#000000; stroke-width:118.11; stroke-opacity:1; 
stroke-linecap:round; stroke-linejoin:round;">
<text x="24543.4" y="64595"
textLength="8779.53" font-size="1574.8" lengthAdjust="spacingAndGlyphs"
text-anchor="start" opacity="0">Drill Map:</text>
<path d="M24883 64538
L24883 63357
L25164 63357
L25333 63413
L25446 63526
L25502 63638
L25558 63863
L25558 64032
L25502 64257
L25446 64370
L25333 64482
L25164 64538
L24883 64538
" />
<path d="M26064 64538
L26064 63751
" />
<path d="M26064 63976
L26120 63863
L26177 63807
L26289 63751
L26402 63751
" />
<path d="M26795 64538
L26795 63751
" />
<path d="M26795 63357
L26739 63413
L26795 63470
L26852 63413
L26795 63357
L26795 63470
" />
<path d="M27527 64538
L27414 64482
L27358 64370
L27358 63357
" />
<path d="M28145 64538
L28033 64482
L27976 64370
L27976 63357
" />
<path d="M29495 64538
L29495 63357
L29889 64201
L30282 63357
L30282 64538
" />
<path d="M31351 64538
L31351 63920
L31295 63807
L31182 63751
L30957 63751
L30845 63807
" />
<path d="M31351 64482
L31239 64538
L30957 64538
L30845 64482
L30789 64370
L30789 64257
L30845 64145
L30957 64088
L31239 64088
L31351 64032
" />
<path d="M31913 63751
L31913 64932
" />
<path d="M31913 63807
L32026 63751
L32251 63751
L32363 63807
L32420 63863
L32476 63976
L32476 64313
L32420 64426
L32363 64482
L32251 64538
L32026 64538
L31913 64482
" />
<path d="M32982 64426
L33038 64482
L32982 64538
L32926 64482
L32982 64426
L32982 64538
" />
<path d="M32982 63807
L33038 63863
L32982 63920
L32926 63863
L32982 63807
L32982 63920
" />
</g> 
</svg>
