%FSLAX45Y45*%
G04 Gerber Fmt 4.5, Leading zero omitted, Abs format (unit mm)*
G04 Created by KiCad (PCBNEW 5.1.5-52549c5~84~ubuntu18.04.1) date 2020-01-14 13:42:11*
%MOMM*%
%LPD*%
G04 APERTURE LIST*
%TA.AperFunction,Profile*%
%ADD10C,0.150000*%
%TD*%
%TA.AperFunction,Profile*%
%ADD11C,0.100000*%
%TD*%
%ADD12C,0.200000*%
%ADD13C,0.300000*%
G04 APERTURE END LIST*
D10*
X6042000Y-15493230D02*
X6042120Y-3828040D01*
X9192910Y-7352000D02*
X9193420Y-6816770D01*
X9093090Y-7352000D02*
X9093330Y-6819770D01*
D11*
X10495000Y-8320088D02*
G75*
G02X10395000Y-8319910I-50000J88D01*
G01*
D10*
X13008000Y-9212000D02*
X12455000Y-8658000D01*
D11*
X9732000Y-7562300D02*
X9253850Y-7562300D01*
X9254000Y-7674000D02*
X9686000Y-7674000D01*
X10104851Y-7780275D02*
X9950000Y-7780275D01*
X10105000Y-7892000D02*
X9904000Y-7892000D01*
D10*
X12387000Y-8726000D02*
X12972000Y-9312000D01*
D11*
X10395000Y-7683912D02*
G75*
G02X10495000Y-7684090I50000J-88D01*
G01*
X10495420Y-8320090D02*
X10495000Y-7684090D01*
X10395420Y-8319900D02*
X10395000Y-7683910D01*
X10104851Y-7780275D02*
G75*
G02X10105000Y-7892000I-559J-55863D01*
G01*
X9732000Y-7562300D02*
X9950000Y-7780000D01*
X9686000Y-7674000D02*
X9904000Y-7892000D01*
X9254000Y-7674000D02*
G75*
G02X9253851Y-7562275I559J55863D01*
G01*
D10*
X9192910Y-7352000D02*
G75*
G02X9093090Y-7352000I-49910J0D01*
G01*
X9093330Y-6819767D02*
G75*
G02X9193420Y-6816767I50090J0D01*
G01*
D11*
X8589420Y-6120000D02*
X8696000Y-6227000D01*
X8490000Y-6179000D02*
X8638000Y-6327000D01*
X8157488Y-5640097D02*
X8376000Y-5640010D01*
X8154998Y-5540010D02*
X8433000Y-5540010D01*
X8157497Y-5640097D02*
G75*
G02X8154998Y-5540010I501J50087D01*
G01*
X8376000Y-5640000D02*
X8489420Y-5754000D01*
X8433000Y-5540000D02*
X8589000Y-5696000D01*
X8490000Y-6179000D02*
X8489420Y-5754000D01*
X8589420Y-6120000D02*
X8589000Y-5696000D01*
X8903470Y-6226910D02*
X8696000Y-6227000D01*
X8906500Y-6327000D02*
X8638000Y-6327000D01*
X8903471Y-6226910D02*
G75*
G02X8906500Y-6327000I29J-50090D01*
G01*
D10*
X11229824Y-9225650D02*
G75*
G02X11161171Y-9298546I-35419J-35419D01*
G01*
X11161170Y-9298540D02*
X10678347Y-8816890D01*
X11229820Y-9225645D02*
X10747000Y-8744000D01*
X10678347Y-8816896D02*
G75*
G02X10747000Y-8744000I35419J35419D01*
G01*
X12387000Y-8726000D02*
G75*
G02X12455000Y-8658000I34000J34000D01*
G01*
X14863000Y-9211910D02*
G75*
G02X14866000Y-9312000I0J-50090D01*
G01*
X23118000Y-15919000D02*
X6513620Y-15919000D01*
X23550000Y-3804000D02*
X23550000Y-15462080D01*
X23103070Y-3357000D02*
X6492870Y-3357000D01*
X6513620Y-15919000D02*
G75*
G02X6042121Y-15493231I-23812J447586D01*
G01*
X6042000Y-3828042D02*
G75*
G02X6492878Y-3357000I449611J20945D01*
G01*
X23550000Y-3804000D02*
G75*
G03X23103069Y-3357011I-446960J29D01*
G01*
X23117935Y-15919000D02*
G75*
G03X23550000Y-15462082I-13935J445918D01*
G01*
X12972000Y-9312000D02*
X14866000Y-9312000D01*
X13008000Y-9211910D02*
X14863000Y-9212000D01*
D12*
D13*
X6320441Y-16392847D02*
X6320441Y-16092847D01*
X6391869Y-16092847D01*
X6434726Y-16107133D01*
X6463298Y-16135704D01*
X6477584Y-16164276D01*
X6491869Y-16221419D01*
X6491869Y-16264276D01*
X6477584Y-16321419D01*
X6463298Y-16349990D01*
X6434726Y-16378562D01*
X6391869Y-16392847D01*
X6320441Y-16392847D01*
X6620441Y-16392847D02*
X6620441Y-16192847D01*
X6620441Y-16249990D02*
X6634726Y-16221419D01*
X6649012Y-16207133D01*
X6677584Y-16192847D01*
X6706155Y-16192847D01*
X6806155Y-16392847D02*
X6806155Y-16192847D01*
X6806155Y-16092847D02*
X6791869Y-16107133D01*
X6806155Y-16121419D01*
X6820441Y-16107133D01*
X6806155Y-16092847D01*
X6806155Y-16121419D01*
X6991869Y-16392847D02*
X6963298Y-16378562D01*
X6949012Y-16349990D01*
X6949012Y-16092847D01*
X7149012Y-16392847D02*
X7120441Y-16378562D01*
X7106155Y-16349990D01*
X7106155Y-16092847D01*
X7491869Y-16392847D02*
X7491869Y-16092847D01*
X7591869Y-16307133D01*
X7691869Y-16092847D01*
X7691869Y-16392847D01*
X7963298Y-16392847D02*
X7963298Y-16235704D01*
X7949012Y-16207133D01*
X7920441Y-16192847D01*
X7863298Y-16192847D01*
X7834726Y-16207133D01*
X7963298Y-16378562D02*
X7934726Y-16392847D01*
X7863298Y-16392847D01*
X7834726Y-16378562D01*
X7820441Y-16349990D01*
X7820441Y-16321419D01*
X7834726Y-16292847D01*
X7863298Y-16278562D01*
X7934726Y-16278562D01*
X7963298Y-16264276D01*
X8106155Y-16192847D02*
X8106155Y-16492847D01*
X8106155Y-16207133D02*
X8134726Y-16192847D01*
X8191869Y-16192847D01*
X8220441Y-16207133D01*
X8234726Y-16221419D01*
X8249012Y-16249990D01*
X8249012Y-16335704D01*
X8234726Y-16364276D01*
X8220441Y-16378562D01*
X8191869Y-16392847D01*
X8134726Y-16392847D01*
X8106155Y-16378562D01*
X8377584Y-16364276D02*
X8391869Y-16378562D01*
X8377584Y-16392847D01*
X8363298Y-16378562D01*
X8377584Y-16364276D01*
X8377584Y-16392847D01*
X8377584Y-16207133D02*
X8391869Y-16221419D01*
X8377584Y-16235704D01*
X8363298Y-16221419D01*
X8377584Y-16207133D01*
X8377584Y-16235704D01*
M02*
