M48
; DRILL file {KiCad 5.1.5-52549c5~84~ubuntu18.04.1} date Tue 14 Jan 2020 01:42:03 PM PST
; FORMAT={-:-/ absolute / metric / decimal}
; #@! TF.CreationDate,2020-01-14T13:42:03-08:00
; #@! TF.GenerationSoftware,Kicad,Pcbnew,5.1.5-52549c5~84~ubuntu18.04.1
; #@! TF.FileFunction,Plated,1,6,PTH
FMAT,2
METRIC
T1C0.200
T2C0.300
T3C0.305
T4C0.400
T5C0.500
T6C0.762
T7C0.800
T8C0.850
T9C0.950
T10C0.965
T11C1.000
T12C1.050
T13C1.100
T14C1.200
T15C1.300
T16C1.400
T17C1.850
T18C2.000
T19C2.100
T20C2.700
T21C2.730
T22C2.750
T23C3.100
T24C3.264
T25C3.500
T26C4.000
%
G90
G05
T1
X117.61Y-93.38
X117.61Y-94.38
X117.61Y-95.38
X118.61Y-93.38
X118.61Y-94.38
X118.61Y-95.38
X84.705Y-65.33
X84.705Y-72.95
X84.705Y-80.57
X84.705Y-83.11
X97.88Y-65.33
X97.88Y-72.905
X97.88Y-80.57
X97.88Y-83.11
X117.58Y-100.78
X117.58Y-101.78
X117.58Y-102.78
X118.58Y-100.78
X118.58Y-101.78
X118.58Y-102.78
X159.21Y-138.48
X159.21Y-139.88
X160.21Y-138.48
X160.21Y-139.88
X161.21Y-138.48
X161.21Y-139.88
X76.15Y-82.27
X76.15Y-83.27
X76.15Y-84.27
X77.15Y-82.27
X77.15Y-83.27
X77.15Y-84.27
T2
X95.05Y-87.73
X95.65Y-87.73
X95.715Y-61.295
X96.26Y-87.73
X96.34Y-61.295
X96.815Y-109.315
X97.09Y-61.295
X97.235Y-108.895
X97.665Y-108.465
X97.724Y-61.224
X99.4Y-61.97
X100.26Y-84.505
X101.055Y-87.435
X101.055Y-88.025
X114.96Y-147.67
X115.01Y-148.91
X115.82Y-147.41
X115.9Y-149.61
X116.155Y-67.985
X116.63Y-147.69
X116.71Y-148.91
X118.67Y-80.97
X119.26Y-80.97
X120.485Y-86.365
X120.895Y-86.775
X121.37Y-85.6
X121.634Y-75.836
X121.68Y-76.43
X121.68Y-77.01
X121.78Y-86.01
X130.205Y-98.405
X134.41Y-79.06
X134.41Y-79.61
X135.97Y-83.45
X136.56Y-83.45
X137.17Y-83.45
X137.28Y-80.12
X138.005Y-67.955
X138.63Y-67.94
X140.23Y-81.68
X140.83Y-81.68
X142.44Y-40.35
X142.44Y-40.93
X143.665Y-63.375
X144.005Y-71.455
X144.005Y-72.03
X144.26Y-63.28
X144.72Y-86.93
X144.74Y-82.84
X145.554Y-66.444
X145.92Y-83.35
X146.01Y-66.07
X146.02Y-86.4
X146.347Y-67.688
X146.84Y-79.37
X146.84Y-79.96
X146.88Y-86.4
X146.94Y-83.35
X147.16Y-62.66
X147.34Y-62.1
X147.39Y-89.0
X147.39Y-89.63
X147.79Y-67.395
X147.8Y-86.4
X147.81Y-67.99
X150.525Y-88.775
X150.525Y-89.38
X150.71Y-72.92
X150.71Y-73.5
X151.48Y-63.04
X152.015Y-86.885
X152.06Y-63.04
X152.15Y-63.94
X152.24Y-90.34
X152.66Y-63.04
X152.76Y-63.94
X153.37Y-63.94
X154.13Y-68.8
X154.17Y-65.32
X154.78Y-65.32
X155.75Y-59.9
X155.75Y-60.45
X158.82Y-89.85
X158.9Y-90.45
X160.35Y-56.88
X160.415Y-56.045
X161.36Y-55.1
X163.251Y-55.091
X163.405Y-77.465
X164.16Y-114.9
X164.755Y-114.885
X165.281Y-55.081
X166.305Y-55.935
X166.305Y-56.925
X166.31Y-81.39
X166.685Y-109.335
X166.685Y-109.935
X166.685Y-110.535
X167.54Y-124.12
X168.13Y-124.12
X168.475Y-82.565
X168.475Y-83.115
X169.58Y-87.155
X169.85Y-45.48
X170.01Y-148.22
X170.18Y-87.155
X170.27Y-45.9
X170.56Y-148.22
X170.7Y-46.33
X170.99Y-93.7
X171.12Y-46.75
X171.49Y-93.35
X171.51Y-93.97
X171.55Y-146.06
X171.805Y-77.705
X172.03Y-135.33
X172.03Y-135.93
X172.13Y-146.06
X172.38Y-77.705
X172.472Y-121.812
X172.873Y-122.212
X174.14Y-77.93
X174.61Y-147.16
X174.75Y-77.93
X175.18Y-147.16
X175.87Y-64.25
X175.87Y-64.97
X176.085Y-139.745
X176.41Y-148.92
X176.41Y-149.53
X176.5Y-140.16
X177.035Y-109.805
X178.55Y-63.847
X178.901Y-120.184
X178.902Y-120.79
X178.906Y-127.384
X178.906Y-127.964
X179.02Y-115.16
X179.08Y-144.83
X179.08Y-145.405
X179.159Y-63.847
X179.62Y-115.16
X180.87Y-144.77
X180.87Y-145.37
X180.92Y-135.74
X180.92Y-136.36
X180.97Y-139.25
X180.97Y-139.83
X181.23Y-100.06
X181.23Y-100.66
X181.715Y-99.325
X182.25Y-105.53
X182.26Y-99.87
X182.48Y-141.86
X182.66Y-99.13
X182.66Y-105.94
X182.67Y-98.53
X182.85Y-142.34
X183.36Y-63.07
X183.455Y-132.205
X183.51Y-144.9
X183.93Y-145.33
X183.96Y-63.07
X184.055Y-132.205
X185.0Y-146.68
X185.2Y-116.795
X185.2Y-117.385
X185.2Y-117.955
X185.205Y-131.18
X185.535Y-146.955
X185.605Y-130.78
X186.025Y-137.075
X186.03Y-109.68
X186.065Y-110.27
X186.102Y-142.882
X186.11Y-142.28
X186.13Y-55.855
X186.5Y-139.61
X186.51Y-139.03
X186.55Y-136.78
X186.735Y-88.936
X186.744Y-88.356
X186.775Y-55.855
X187.36Y-138.29
X187.41Y-142.28
X187.42Y-141.68
X187.83Y-147.35
X187.989Y-88.346
X187.995Y-88.921
X188.05Y-138.98
X188.057Y-90.373
X188.06Y-139.58
X188.7Y-130.23
X188.7Y-130.78
X188.71Y-141.73
X188.71Y-142.33
X190.66Y-141.76
X190.66Y-142.32
X190.69Y-135.46
X190.69Y-136.02
X190.77Y-130.14
X190.77Y-130.69
X190.82Y-147.49
X191.14Y-90.44
X191.3Y-147.05
X191.842Y-143.581
X192.257Y-143.167
X192.58Y-71.57
X192.99Y-71.98
X193.167Y-70.352
X193.26Y-66.01
X193.415Y-126.46
X193.415Y-127.035
X193.605Y-122.855
X193.605Y-123.43
X193.7Y-70.59
X193.72Y-65.61
X193.87Y-90.69
X193.87Y-91.26
X194.15Y-119.92
X194.2Y-144.97
X194.2Y-145.53
X194.35Y-88.43
X194.56Y-125.03
X194.56Y-125.58
X194.56Y-128.1
X194.56Y-128.7
X194.575Y-120.345
X194.635Y-76.645
X194.751Y-139.568
X194.78Y-88.0
X194.85Y-141.75
X194.85Y-142.34
X194.89Y-132.24
X194.89Y-132.82
X195.02Y-67.37
X195.035Y-77.045
X195.167Y-139.163
X195.48Y-74.26
X195.57Y-67.37
X195.79Y-64.04
X195.79Y-64.64
X195.81Y-134.55
X195.82Y-135.148
X196.05Y-139.06
X196.05Y-139.66
X196.08Y-74.26
X196.14Y-145.52
X196.15Y-144.92
X196.75Y-147.5
X196.8Y-141.76
X196.8Y-142.34
X196.82Y-132.19
X196.82Y-132.76
X196.99Y-146.95
X197.392Y-110.492
X197.47Y-68.83
X197.47Y-69.42
X197.772Y-110.047
X197.93Y-143.6
X198.15Y-76.58
X198.15Y-77.17
X198.172Y-109.647
X198.347Y-143.227
X198.39Y-64.2
X198.81Y-136.64
X198.81Y-137.21
X198.97Y-64.21
X199.21Y-72.02
X199.835Y-77.083
X199.96Y-141.88
X199.96Y-142.44
X199.98Y-71.69
X199.98Y-137.18
X199.99Y-136.58
X200.05Y-74.37
X200.06Y-76.58
X200.67Y-74.11
X201.16Y-69.1
X201.165Y-69.715
X201.47Y-76.8
X201.59Y-133.86
X201.59Y-134.46
X201.59Y-140.34
X201.6Y-140.94
X201.91Y-76.37
X202.86Y-92.985
X203.465Y-92.985
X203.51Y-144.7
X203.51Y-145.29
X203.51Y-145.9
X204.28Y-73.78
X204.77Y-70.59
X204.88Y-73.82
X204.995Y-72.395
X205.34Y-70.59
X205.34Y-144.68
X205.34Y-145.28
X205.34Y-145.87
X205.38Y-79.64
X205.68Y-134.8
X205.79Y-80.08
X206.26Y-134.8
X206.53Y-104.1
X207.13Y-104.1
X207.17Y-144.59
X207.17Y-145.19
X208.31Y-105.79
X208.31Y-106.39
X208.495Y-82.785
X208.915Y-83.205
X209.655Y-128.105
X209.82Y-134.57
X210.147Y-149.843
X210.205Y-128.105
X210.37Y-134.57
X210.725Y-100.605
X211.02Y-149.92
X211.069Y-147.201
X211.14Y-100.19
X211.27Y-148.06
X211.445Y-149.495
X212.39Y-135.45
X213.01Y-135.45
X213.718Y-123.267
X214.142Y-123.692
X214.31Y-65.61
X214.31Y-66.18
X215.34Y-64.71
X215.34Y-65.27
X218.225Y-64.735
X218.57Y-68.42
X218.635Y-65.145
X219.2Y-68.48
X220.955Y-134.355
X221.555Y-134.355
X225.145Y-66.165
X225.145Y-66.785
X225.145Y-67.385
X225.752Y-110.927
X225.753Y-110.328
X227.4Y-100.56
X227.4Y-101.13
X229.3Y-122.55
X229.3Y-123.19
X230.82Y-100.58
X230.82Y-101.14
X231.66Y-102.67
X231.66Y-103.24
T3
X119.71Y-38.045
X114.81Y-38.045
T4
X61.03Y-118.27
X61.08Y-78.38
X61.13Y-92.59
X61.16Y-87.7
X61.17Y-96.45
X61.29Y-46.87
X61.35Y-99.73
X61.42Y-73.66
X61.43Y-102.79
X61.46Y-64.42
X61.47Y-53.97
X61.48Y-52.34
X61.51Y-58.37
X61.55Y-151.21
X61.57Y-137.83
X61.75Y-140.47
X62.13Y-114.105
X62.59Y-104.85
X63.555Y-114.18
X65.45Y-48.29
X65.805Y-114.18
X66.56Y-48.29
X66.62Y-89.78
X66.62Y-90.53
X67.11Y-34.21
X67.155Y-114.23
X67.59Y-84.84
X67.62Y-95.91
X68.124Y-134.066
X68.16Y-135.3
X68.2Y-158.51
X68.28Y-114.23
X68.305Y-34.305
X68.39Y-84.84
X68.42Y-95.91
X68.7Y-135.99
X68.739Y-134.681
X69.16Y-89.8
X69.16Y-90.59
X69.23Y-142.18
X69.355Y-158.33
X69.374Y-135.316
X69.53Y-114.23
X70.02Y-135.99
X70.05Y-142.97
X70.1Y-142.18
X70.78Y-114.28
X70.85Y-142.18
X71.09Y-34.22
X71.336Y-143.014
X71.48Y-113.03
X71.57Y-142.18
X71.88Y-111.105
X72.28Y-78.03
X72.28Y-78.93
X73.77Y-34.17
X74.4Y-158.53
X74.72Y-79.27
X75.18Y-78.81
X75.74Y-34.18
X76.65Y-78.9
X76.65Y-81.16
X76.867Y-65.343
X77.667Y-65.343
X77.81Y-34.22
X78.468Y-65.343
X78.65Y-48.31
X78.75Y-158.53
X79.267Y-65.343
X79.45Y-48.31
X80.067Y-65.343
X80.105Y-74.855
X80.26Y-48.31
X80.31Y-34.22
X80.855Y-59.405
X80.855Y-74.855
X81.08Y-85.63
X81.08Y-86.43
X81.08Y-87.33
X81.41Y-158.53
X81.68Y-59.405
X82.761Y-65.649
X83.23Y-95.505
X83.361Y-66.249
X83.48Y-67.13
X83.62Y-96.36
X83.76Y-34.22
X85.02Y-158.53
X85.53Y-94.305
X85.59Y-89.65
X85.692Y-93.517
X86.04Y-68.43
X86.33Y-89.65
X86.83Y-97.505
X86.86Y-68.43
X87.017Y-101.067
X87.16Y-34.28
X87.23Y-100.305
X87.4Y-54.61
X87.4Y-55.26
X87.4Y-55.93
X87.48Y-96.755
X87.64Y-59.68
X87.64Y-60.48
X87.7Y-68.43
X87.909Y-38.429
X87.951Y-46.789
X88.14Y-45.89
X88.25Y-158.53
X88.469Y-37.869
X88.955Y-99.63
X88.98Y-100.405
X89.02Y-43.5
X89.08Y-91.255
X89.255Y-98.505
X89.3Y-121.0
X89.705Y-94.43
X89.705Y-95.23
X89.91Y-43.5
X90.05Y-121.0
X90.055Y-34.23
X90.43Y-90.43
X90.805Y-97.605
X90.805Y-98.355
X90.81Y-121.0
X91.017Y-93.767
X91.19Y-158.53
X91.555Y-55.49
X91.65Y-128.16
X91.66Y-129.68
X91.76Y-126.8
X91.76Y-131.59
X91.986Y-49.164
X92.19Y-58.03
X92.355Y-55.49
X92.87Y-63.14
X92.965Y-58.03
X93.08Y-55.49
X93.4Y-128.18
X93.4Y-129.76
X93.41Y-131.54
X93.42Y-126.82
X93.67Y-63.14
X93.74Y-58.03
X93.85Y-158.53
X94.06Y-121.0
X94.51Y-93.3
X94.67Y-47.08
X94.87Y-121.0
X95.3Y-93.3
X95.49Y-47.08
X95.596Y-49.164
X95.67Y-121.0
X96.27Y-44.76
X96.31Y-47.08
X96.426Y-49.164
X96.47Y-158.53
X97.07Y-47.08
X97.13Y-62.96
X97.87Y-34.28
X97.87Y-51.36
X97.88Y-50.555
X97.95Y-62.96
X98.68Y-87.205
X98.755Y-43.615
X98.76Y-62.96
X98.89Y-130.47
X98.96Y-129.0
X99.16Y-158.53
X99.268Y-148.772
X99.43Y-61.28
X99.455Y-87.005
X99.5Y-129.76
X99.58Y-42.79
X99.64Y-130.96
X99.74Y-131.85
X99.79Y-81.5
X100.083Y-149.587
X100.2Y-154.7
X100.2Y-155.55
X100.26Y-52.73
X100.27Y-51.21
X100.4Y-132.57
X100.53Y-131.53
X100.585Y-81.505
X100.65Y-42.78
X100.93Y-84.505
X101.18Y-158.53
X101.4Y-55.11
X101.64Y-51.02
X101.64Y-51.8
X101.942Y-64.757
X101.942Y-66.005
X101.942Y-67.627
X102.15Y-54.83
X102.505Y-62.885
X102.505Y-63.685
X102.67Y-47.37
X102.79Y-158.53
X102.82Y-78.22
X102.82Y-78.93
X102.9Y-42.75
X102.905Y-91.055
X102.955Y-91.855
X103.03Y-52.65
X103.42Y-46.58
X103.82Y-42.79
X103.86Y-52.65
X103.86Y-54.83
X103.86Y-55.6
X104.02Y-145.87
X104.07Y-141.3
X104.1Y-142.11
X104.21Y-84.515
X104.33Y-46.55
X104.37Y-38.78
X104.69Y-52.65
X104.718Y-145.872
X104.92Y-34.28
X104.985Y-84.515
X105.15Y-38.78
X105.18Y-42.79
X105.25Y-158.54
X105.445Y-141.825
X105.48Y-46.55
X105.53Y-74.38
X105.53Y-75.38
X105.78Y-148.02
X105.81Y-149.439
X105.876Y-66.964
X105.96Y-125.97
X106.21Y-158.54
X106.4Y-47.76
X106.4Y-48.58
X106.421Y-67.509
X106.54Y-42.79
X106.755Y-125.175
X106.84Y-46.55
X106.981Y-68.069
X107.21Y-149.449
X107.222Y-78.477
X107.29Y-147.999
X107.385Y-124.545
X107.5Y-50.83
X107.5Y-51.62
X107.715Y-154.865
X108.05Y-46.55
X108.12Y-42.85
X108.35Y-75.04
X108.35Y-75.85
X108.48Y-158.54
X108.665Y-154.865
X108.7Y-58.42
X108.73Y-148.009
X108.79Y-149.439
X108.95Y-34.28
X109.1Y-145.32
X109.11Y-45.6
X109.12Y-141.77
X109.12Y-142.58
X109.12Y-143.4
X109.17Y-43.9
X109.445Y-155.085
X109.47Y-158.54
X109.575Y-78.385
X109.91Y-130.79
X109.93Y-145.29
X110.25Y-69.53
X110.25Y-70.34
X110.46Y-121.47
X110.595Y-83.945
X110.83Y-62.04
X110.85Y-57.4
X110.942Y-101.707
X110.945Y-35.655
X111.0Y-120.93
X111.25Y-151.74
X111.41Y-62.59
X111.695Y-35.655
X111.935Y-85.215
X112.215Y-152.665
X112.285Y-99.145
X112.38Y-34.28
X112.5Y-49.88
X112.51Y-49.08
X112.581Y-104.509
X112.59Y-158.54
X112.646Y-91.146
X112.91Y-37.71
X112.92Y-38.55
X113.111Y-105.039
X113.281Y-91.781
X113.695Y-85.835
X113.725Y-79.25
X113.725Y-152.665
X113.916Y-92.416
X113.92Y-80.87
X114.12Y-51.36
X114.49Y-79.25
X114.55Y-130.79
X114.552Y-104.38
X114.7Y-80.87
X114.89Y-153.57
X114.9Y-51.36
X114.905Y-93.405
X114.98Y-53.19
X115.13Y-70.78
X115.375Y-128.815
X115.375Y-129.845
X115.4Y-131.86
X115.41Y-104.38
X115.79Y-53.2
X115.83Y-152.76
X115.93Y-99.69
X115.96Y-34.28
X115.96Y-93.74
X116.07Y-79.25
X116.23Y-86.67
X116.23Y-104.38
X116.82Y-153.72
X116.86Y-79.25
X117.02Y-104.38
X117.02Y-158.54
X117.055Y-68.88
X117.061Y-70.949
X117.1Y-152.63
X117.21Y-86.66
X117.36Y-54.88
X117.75Y-57.29
X117.8Y-104.38
X117.811Y-129.801
X118.081Y-87.089
X118.17Y-54.935
X118.42Y-153.61
X118.52Y-57.29
X118.666Y-87.674
X118.69Y-132.76
X118.7Y-62.8
X118.75Y-46.87
X118.83Y-130.79
X119.05Y-152.91
X119.218Y-69.017
X119.242Y-71.992
X119.37Y-153.83
X119.415Y-133.675
X119.42Y-63.52
X119.47Y-98.55
X119.48Y-46.87
X119.93Y-104.94
X120.0Y-34.28
X120.155Y-131.455
X120.18Y-46.87
X120.21Y-134.47
X120.25Y-102.47
X120.26Y-104.15
X120.27Y-98.55
X120.27Y-155.13
X120.367Y-90.25
X120.69Y-51.62
X120.7Y-52.43
X120.92Y-44.68
X120.98Y-98.55
X121.06Y-132.17
X121.06Y-133.16
X121.06Y-135.32
X121.245Y-93.405
X121.26Y-92.75
X121.31Y-90.25
X121.34Y-80.32
X121.34Y-81.4
X121.78Y-155.87
X122.0Y-78.92
X122.06Y-144.92
X122.33Y-158.54
X122.495Y-39.535
X122.837Y-59.553
X123.06Y-144.92
X123.075Y-38.955
X123.28Y-155.85
X123.45Y-53.14
X123.46Y-56.9
X123.46Y-62.77
X123.607Y-59.553
X123.987Y-106.963
X124.02Y-97.325
X124.06Y-79.64
X124.06Y-80.55
X124.06Y-108.77
X124.06Y-109.7
X124.06Y-110.6
X124.08Y-34.28
X124.09Y-107.84
X124.1Y-118.08
X124.1Y-144.92
X124.128Y-111.402
X124.175Y-57.415
X124.24Y-63.64
X124.275Y-85.145
X124.307Y-59.553
X124.32Y-119.6
X124.46Y-116.43
X124.5Y-155.04
X124.541Y-53.239
X124.97Y-97.325
X125.17Y-120.92
X125.25Y-144.92
X125.27Y-153.7
X125.62Y-114.86
X125.68Y-86.55
X125.718Y-134.258
X125.785Y-83.849
X126.06Y-61.27
X126.06Y-62.07
X126.283Y-133.693
X126.33Y-35.655
X126.41Y-48.54
X126.42Y-84.484
X126.46Y-50.96
X126.55Y-122.16
X126.74Y-100.01
X126.888Y-133.088
X126.96Y-49.11
X127.045Y-51.535
X127.13Y-35.655
X127.19Y-113.78
X127.39Y-58.91
X127.39Y-88.26
X127.61Y-100.0
X127.76Y-59.64
X128.09Y-132.58
X128.15Y-34.28
X128.45Y-41.08
X128.45Y-41.86
X128.67Y-123.65
X128.775Y-89.645
X128.84Y-112.71
X128.9Y-78.94
X128.94Y-132.6
X129.51Y-138.77
X129.71Y-155.02
X129.71Y-158.54
X129.76Y-132.6
X129.78Y-124.39
X129.95Y-78.94
X130.13Y-83.64
X130.22Y-75.31
X130.29Y-87.29
X130.335Y-91.205
X130.45Y-94.35
X130.69Y-50.39
X130.88Y-148.38
X130.9Y-138.77
X130.94Y-103.55
X130.99Y-84.5
X131.02Y-111.17
X131.11Y-94.35
X131.218Y-105.227
X131.3Y-87.29
X131.4Y-125.49
X131.64Y-149.14
X131.64Y-150.29
X131.64Y-151.69
X131.75Y-34.28
X131.815Y-104.525
X132.47Y-110.16
X132.83Y-91.32
X132.92Y-126.51
X133.0Y-55.24
X133.04Y-118.25
X133.42Y-54.58
X133.46Y-74.01
X133.618Y-67.126
X133.64Y-121.55
X133.75Y-67.95
X133.89Y-109.22
X133.93Y-113.59
X134.1Y-122.94
X134.39Y-73.08
X134.51Y-138.84
X134.86Y-124.2
X134.9Y-91.32
X135.015Y-128.2
X135.02Y-60.25
X135.27Y-138.84
X135.29Y-111.74
X135.29Y-158.54
X135.45Y-34.28
X135.53Y-56.09
X135.53Y-108.13
X135.72Y-50.39
X135.72Y-125.26
X135.78Y-133.43
X135.78Y-134.23
X136.13Y-67.13
X136.3Y-58.25
X136.34Y-56.09
X136.46Y-110.28
X136.727Y-135.177
X136.88Y-133.33
X136.88Y-134.23
X136.93Y-67.105
X137.06Y-58.25
X137.15Y-91.32
X137.29Y-60.25
X137.54Y-106.66
X137.615Y-126.85
X137.63Y-50.42
X137.77Y-129.87
X137.88Y-109.31
X138.15Y-72.74
X138.15Y-73.52
X138.505Y-36.205
X138.802Y-134.767
X138.802Y-137.398
X138.865Y-53.665
X138.925Y-140.905
X138.98Y-65.98
X139.24Y-72.94
X139.24Y-73.73
X139.265Y-36.205
X139.32Y-91.32
X139.34Y-100.58
X139.49Y-50.38
X139.5Y-108.4
X139.5Y-141.48
X139.55Y-85.55
X139.63Y-53.42
X139.735Y-64.675
X139.78Y-65.98
X139.94Y-34.28
X139.95Y-100.0
X140.04Y-149.17
X140.04Y-150.12
X140.04Y-151.11
X140.115Y-142.095
X140.315Y-130.9
X140.32Y-85.56
X140.515Y-105.425
X140.55Y-64.675
X140.755Y-54.33
X141.015Y-86.885
X141.09Y-158.54
X141.4Y-50.37
X141.48Y-88.26
X141.48Y-89.04
X141.48Y-107.66
X141.56Y-54.33
X141.665Y-128.425
X141.705Y-86.885
X141.85Y-91.32
X142.19Y-72.75
X142.35Y-54.33
X142.415Y-105.1
X142.615Y-131.4
X143.107Y-143.403
X143.43Y-91.32
X143.465Y-128.7
X143.49Y-107.56
X143.69Y-62.075
X143.8Y-65.84
X143.835Y-66.625
X143.92Y-34.28
X144.04Y-59.32
X144.04Y-131.5
X144.05Y-60.12
X144.14Y-145.27
X144.2Y-38.87
X144.2Y-39.6
X144.545Y-62.075
X144.59Y-105.15
X144.747Y-75.133
X144.8Y-44.3
X144.865Y-139.845
X145.105Y-42.075
X145.17Y-64.225
X145.32Y-91.32
X145.36Y-70.18
X145.365Y-131.3
X145.385Y-140.365
X145.41Y-87.58
X145.43Y-107.69
X145.6Y-44.3
X145.755Y-40.355
X145.92Y-82.63
X146.04Y-61.89
X146.05Y-64.225
X146.06Y-70.19
X146.09Y-148.52
X146.11Y-158.54
X146.12Y-149.33
X146.34Y-105.3
X146.389Y-76.791
X146.42Y-52.75
X146.725Y-56.215
X146.79Y-70.18
X147.055Y-39.015
X147.055Y-39.695
X147.23Y-52.75
X147.49Y-127.925
X147.7Y-108.31
X147.8Y-105.75
X148.04Y-52.75
X148.32Y-34.28
X148.34Y-100.5
X148.53Y-106.79
X148.785Y-52.375
X148.84Y-130.275
X148.96Y-56.22
X149.25Y-100.35
X149.45Y-109.25
X149.57Y-141.08
X150.005Y-56.129
X150.005Y-59.505
X150.04Y-107.89
X150.135Y-42.075
X150.23Y-151.23
X150.23Y-152.355
X150.23Y-153.355
X150.23Y-154.505
X150.35Y-141.08
X150.365Y-110.0
X150.632Y-137.847
X150.68Y-134.79
X150.817Y-150.642
X150.892Y-155.417
X150.915Y-129.075
X150.995Y-42.075
X151.124Y-55.01
X151.29Y-110.95
X151.38Y-150.08
X151.48Y-108.9
X151.62Y-158.54
X151.72Y-125.11
X151.915Y-42.105
X152.005Y-97.255
X152.005Y-98.055
X152.005Y-98.855
X152.34Y-57.33
X152.43Y-148.97
X152.45Y-42.64
X152.52Y-82.75
X152.53Y-81.67
X152.544Y-53.59
X152.8Y-123.79
X152.96Y-34.28
X152.987Y-134.77
X153.0Y-110.23
X153.015Y-56.665
X153.093Y-137.847
X153.3Y-82.75
X153.34Y-81.66
X153.505Y-87.255
X153.555Y-94.605
X153.555Y-95.405
X153.58Y-122.39
X153.615Y-115.0
X153.797Y-52.337
X154.06Y-82.74
X154.09Y-81.66
X154.09Y-116.28
X154.12Y-83.86
X154.17Y-120.28
X154.31Y-118.25
X154.355Y-95.43
X154.38Y-94.63
X154.89Y-83.86
X154.89Y-144.97
X154.92Y-144.13
X154.96Y-34.28
X155.32Y-134.75
X155.404Y-50.73
X155.442Y-137.722
X155.45Y-113.3
X155.65Y-83.85
X155.86Y-125.84
X155.925Y-38.545
X156.05Y-144.14
X156.05Y-144.97
X156.095Y-53.855
X156.267Y-44.512
X156.34Y-68.815
X156.5Y-54.7
X156.6Y-131.56
X156.76Y-112.83
X156.98Y-36.71
X156.98Y-125.07
X157.05Y-138.09
X157.082Y-44.512
X157.15Y-45.38
X157.22Y-68.815
X157.34Y-34.28
X157.34Y-134.39
X157.356Y-144.956
X157.59Y-130.57
X157.66Y-158.54
X157.68Y-75.417
X157.78Y-36.71
X158.01Y-124.28
X158.02Y-112.69
X158.08Y-38.19
X158.23Y-134.39
X158.297Y-48.797
X158.498Y-144.912
X158.59Y-131.57
X158.61Y-36.71
X158.805Y-48.289
X158.93Y-112.83
X159.17Y-123.42
X159.356Y-144.256
X159.48Y-61.63
X159.735Y-109.715
X159.78Y-75.535
X159.8Y-113.41
X159.84Y-87.24
X160.14Y-70.87
X160.14Y-71.67
X160.14Y-72.48
X160.14Y-122.78
X160.275Y-110.255
X160.305Y-61.605
X160.53Y-34.255
X160.54Y-50.73
X160.56Y-39.09
X160.67Y-114.0
X160.69Y-125.12
X161.05Y-158.54
X161.06Y-94.87
X161.17Y-122.22
X161.26Y-124.55
X161.58Y-75.535
X161.62Y-114.66
X161.745Y-102.015
X161.805Y-72.48
X161.86Y-71.08
X161.895Y-110.445
X161.895Y-111.145
X161.9Y-94.88
X162.06Y-40.96
X162.07Y-121.48
X162.41Y-115.49
X162.495Y-102.015
X162.605Y-72.48
X162.67Y-71.08
X162.73Y-94.88
X162.79Y-120.55
X162.96Y-116.39
X162.996Y-124.87
X162.996Y-125.632
X162.996Y-128.934
X162.996Y-129.696
X163.23Y-119.57
X163.24Y-117.22
X163.32Y-48.65
X163.37Y-50.73
X163.44Y-71.08
X163.55Y-38.455
X163.55Y-42.83
X163.55Y-46.89
X163.705Y-72.48
X163.85Y-34.28
X164.09Y-71.08
X164.1Y-48.65
X164.31Y-158.54
X164.795Y-94.995
X164.795Y-95.665
X164.825Y-40.96
X165.64Y-103.1
X165.9Y-50.73
X166.28Y-70.705
X166.305Y-58.18
X166.305Y-60.305
X166.305Y-63.955
X166.305Y-65.955
X166.305Y-67.43
X166.305Y-69.105
X166.305Y-69.905
X166.31Y-82.45
X166.31Y-83.6
X166.31Y-84.88
X166.31Y-86.05
X166.31Y-87.27
X166.31Y-88.55
X166.31Y-89.71
X166.31Y-90.98
X166.47Y-137.035
X166.47Y-137.76
X166.48Y-103.94
X167.11Y-43.24
X167.28Y-103.94
X167.44Y-158.54
X167.63Y-57.68
X167.63Y-58.555
X167.91Y-43.34
X167.95Y-51.8
X168.04Y-108.74
X168.08Y-126.23
X168.13Y-71.055
X168.605Y-109.305
X168.68Y-70.505
X168.9Y-34.28
X168.905Y-64.23
X168.96Y-39.85
X169.165Y-109.865
X169.17Y-126.23
X169.28Y-59.93
X169.76Y-39.83
X169.855Y-68.53
X169.855Y-69.33
X169.99Y-59.93
X170.06Y-126.23
X170.105Y-58.005
X170.655Y-75.98
X170.905Y-65.28
X171.0Y-126.23
X171.005Y-75.105
X171.39Y-140.86
X171.43Y-75.98
X171.505Y-64.135
X171.78Y-52.705
X171.855Y-82.925
X171.855Y-83.725
X172.123Y-140.917
X172.23Y-59.93
X172.305Y-57.88
X172.345Y-64.135
X172.42Y-94.81
X172.53Y-52.705
X172.61Y-158.52
X173.18Y-53.055
X173.25Y-94.79
X174.08Y-94.8
X174.56Y-34.28
X175.28Y-104.14
X175.28Y-104.95
X175.93Y-57.93
X175.93Y-58.58
X176.23Y-108.37
X176.835Y-88.685
X176.93Y-72.155
X177.05Y-58.105
X177.07Y-105.63
X177.09Y-78.83
X177.095Y-79.575
X177.15Y-133.3
X177.16Y-131.71
X177.16Y-132.5
X177.375Y-88.145
X177.705Y-72.155
X177.94Y-110.71
X177.95Y-58.105
X177.96Y-104.8
X178.48Y-75.155
X178.48Y-75.98
X178.48Y-76.73
X178.505Y-72.155
X178.75Y-104.03
X178.88Y-140.79
X178.89Y-139.2
X178.89Y-139.99
X178.95Y-58.805
X178.95Y-61.03
X180.42Y-34.28
X181.605Y-57.455
X181.605Y-58.23
X181.63Y-158.54
X182.16Y-139.32
X182.16Y-140.12
X182.52Y-108.37
X182.52Y-109.16
X182.52Y-109.93
X184.89Y-86.31
X184.92Y-85.26
X185.36Y-135.65
X185.71Y-65.06
X185.72Y-34.28
X186.05Y-85.03
X186.11Y-135.65
X186.22Y-64.26
X186.48Y-58.655
X186.58Y-75.755
X186.76Y-65.01
X187.355Y-75.735
X187.46Y-77.572
X187.46Y-78.372
X188.73Y-158.54
X189.23Y-78.455
X189.255Y-77.805
X189.255Y-79.208
X189.28Y-59.93
X189.66Y-67.22
X189.96Y-59.93
X190.4Y-86.12
X190.4Y-86.94
X190.47Y-67.22
X190.78Y-132.37
X191.28Y-67.205
X191.305Y-77.255
X191.305Y-78.23
X191.51Y-132.37
X191.555Y-63.355
X191.59Y-64.13
X191.73Y-85.608
X191.73Y-86.355
X191.73Y-87.03
X192.07Y-59.93
X192.257Y-140.003
X192.257Y-140.753
X192.257Y-140.753
X192.9Y-158.62
X193.55Y-135.56
X193.55Y-136.3
X193.755Y-53.255
X194.3Y-81.79
X194.3Y-82.59
X194.705Y-53.28
X195.39Y-34.28
X196.74Y-58.335
X197.61Y-57.935
X198.82Y-58.455
X198.82Y-59.255
X200.03Y-102.79
X200.32Y-34.28
X200.8Y-102.79
X201.43Y-55.715
X201.43Y-56.955
X201.58Y-102.79
X201.75Y-87.29
X202.31Y-86.73
X202.47Y-108.41
X202.98Y-158.51
X203.18Y-81.22
X203.26Y-108.41
X203.98Y-81.22
X205.93Y-34.28
X207.37Y-90.38
X207.535Y-63.755
X207.535Y-64.505
X208.18Y-55.03
X208.5Y-65.37
X208.52Y-90.38
X208.98Y-55.03
X209.0Y-65.93
X209.63Y-154.205
X209.64Y-155.01
X210.24Y-82.84
X210.715Y-64.38
X210.8Y-83.4
X211.48Y-64.38
X211.52Y-158.54
X211.63Y-60.18
X212.018Y-80.928
X212.018Y-81.69
X212.84Y-34.28
X213.255Y-53.68
X213.73Y-54.31
X214.21Y-60.18
X214.485Y-108.315
X215.275Y-108.315
X215.945Y-157.055
X216.055Y-108.3
X216.72Y-157.055
X217.17Y-153.605
X217.35Y-58.745
X217.495Y-157.055
X217.945Y-153.605
X218.13Y-34.28
X218.49Y-61.305
X218.695Y-153.605
X219.21Y-158.54
X220.41Y-147.87
X220.95Y-158.54
X221.04Y-57.45
X221.05Y-56.65
X221.06Y-55.84
X221.4Y-146.88
X222.48Y-89.67
X223.27Y-89.66
X223.41Y-34.28
X223.88Y-158.54
X224.14Y-82.07
X224.22Y-78.49
X224.575Y-146.795
X224.87Y-94.3
X224.87Y-95.075
X225.03Y-79.3
X225.18Y-82.07
X225.38Y-147.6
X226.08Y-34.22
X226.13Y-99.01
X226.16Y-98.2
X226.86Y-158.54
X228.39Y-34.17
X229.03Y-100.6
X229.035Y-99.805
X230.45Y-89.71
X230.935Y-92.425
X231.27Y-89.71
X233.04Y-34.68
X234.455Y-142.53
X234.505Y-145.98
X234.505Y-152.03
X234.53Y-89.98
X234.53Y-96.63
X234.53Y-103.28
X234.53Y-106.705
X234.53Y-119.905
X234.53Y-149.205
X234.555Y-113.005
X234.58Y-115.48
X234.58Y-137.88
X234.63Y-46.005
X234.63Y-52.355
X234.63Y-128.605
X234.63Y-131.03
X234.65Y-75.49
X234.65Y-86.33
X234.655Y-59.005
X234.71Y-37.55
X234.72Y-43.03
X234.72Y-49.56
X234.72Y-55.39
X234.73Y-65.83
X234.73Y-80.73
X234.87Y-62.65
X234.93Y-69.68
T5
X62.405Y-154.586
X63.142Y-152.717
X63.207Y-156.428
X64.984Y-151.915
X65.076Y-157.165
X66.853Y-152.652
X66.918Y-156.363
X67.655Y-154.494
X227.755Y-37.96
X228.524Y-36.104
X228.524Y-39.816
X230.38Y-35.335
X230.38Y-40.585
X232.236Y-36.104
X232.236Y-39.816
X233.005Y-37.96
X210.825Y-104.0
X211.418Y-102.568
X211.418Y-105.432
X212.85Y-101.975
X212.85Y-106.025
X214.282Y-102.568
X214.282Y-105.432
X214.875Y-104.0
X152.825Y-104.0
X153.418Y-102.568
X153.418Y-105.432
X154.85Y-101.975
X154.85Y-106.025
X156.282Y-102.568
X156.282Y-105.432
X156.875Y-104.0
X227.755Y-154.78
X228.524Y-152.924
X228.524Y-156.636
X230.38Y-152.155
X230.38Y-157.405
X232.236Y-152.924
X232.236Y-156.636
X233.005Y-154.78
X210.825Y-153.0
X211.418Y-151.568
X211.418Y-154.432
X212.85Y-150.975
X212.85Y-155.025
X214.282Y-151.568
X214.282Y-154.432
X214.875Y-153.0
X62.385Y-37.996
X63.122Y-36.127
X63.187Y-39.838
X64.964Y-35.325
X65.056Y-40.575
X66.833Y-36.062
X66.898Y-39.773
X67.635Y-37.904
X152.825Y-153.0
X153.418Y-151.568
X153.418Y-154.432
X154.85Y-150.975
X154.85Y-155.025
X156.282Y-151.568
X156.282Y-154.432
X156.875Y-153.0
T6
X62.195Y-116.09
X62.22Y-118.78
X92.795Y-116.255
X92.795Y-118.48
T7
X173.78Y-84.11
X173.78Y-91.73
X176.32Y-84.11
X176.32Y-91.73
X178.86Y-84.11
X178.86Y-91.73
X181.4Y-84.11
X181.4Y-91.73
X64.96Y-123.24
X64.96Y-128.24
X126.14Y-70.33
X126.14Y-75.33
X106.95Y-70.67
X111.95Y-70.67
X206.105Y-113.275
X206.105Y-115.815
X206.105Y-118.355
X208.68Y-113.275
X208.68Y-115.815
X208.68Y-118.355
X130.52Y-71.95
X135.52Y-71.95
T8
X201.045Y-110.735
X201.045Y-118.355
X201.045Y-120.895
X201.045Y-123.435
X201.045Y-125.975
X203.585Y-110.735
X203.585Y-125.975
X206.125Y-110.735
X206.125Y-125.975
X208.665Y-110.735
X208.665Y-125.975
X211.205Y-110.735
X211.205Y-125.975
X213.745Y-110.735
X213.745Y-125.975
X216.285Y-110.735
X216.285Y-125.975
X218.825Y-110.735
X218.825Y-125.975
X221.365Y-110.735
X221.365Y-125.975
X223.905Y-110.735
X228.985Y-125.975
X231.525Y-110.735
X231.525Y-125.975
X234.065Y-110.735
T9
X234.065Y-125.975
X131.675Y-47.25
X133.045Y-44.71
X134.415Y-47.25
X135.785Y-44.71
X137.155Y-47.25
X138.525Y-44.71
X139.895Y-47.25
X141.265Y-44.71
X142.635Y-47.25
T10
X171.35Y-118.369
X171.35Y-124.16
T11
X67.67Y-146.39
X67.67Y-131.53
X107.28Y-44.63
X91.93Y-101.12
X96.93Y-101.12
X132.262Y-156.874
X210.75Y-141.35
X215.75Y-141.35
X76.25Y-44.59
X159.856Y-151.736
X159.856Y-154.276
X162.396Y-151.736
X162.396Y-154.276
X164.936Y-151.736
X164.936Y-154.276
X167.476Y-151.736
X167.476Y-154.276
X170.016Y-151.736
X170.016Y-154.276
X172.556Y-151.736
X172.556Y-154.276
X175.096Y-151.736
X175.096Y-154.276
X177.636Y-151.736
X177.636Y-154.276
X180.176Y-151.736
X180.176Y-154.276
X182.716Y-151.736
X182.716Y-154.276
X185.256Y-151.736
X185.256Y-154.276
X187.796Y-151.736
X187.796Y-154.276
X190.336Y-151.736
X190.336Y-154.276
X192.876Y-151.736
X192.876Y-154.276
X195.416Y-151.736
X195.416Y-154.276
X197.956Y-151.736
X197.956Y-154.276
X200.496Y-151.736
X200.496Y-154.276
X203.036Y-151.736
X203.036Y-154.276
X205.576Y-151.736
X205.576Y-154.276
X208.116Y-151.736
X208.116Y-154.276
T12
X106.44Y-107.149
X106.44Y-112.94
T13
X75.42Y-91.27
X75.42Y-93.81
X75.42Y-96.35
X75.42Y-68.39
X75.42Y-70.93
X75.42Y-73.47
T14
X66.18Y-71.13
X71.18Y-71.13
X99.63Y-92.255
X104.63Y-92.255
X104.54Y-127.39
X109.54Y-127.39
X112.78Y-110.93
X112.78Y-120.93
X120.28Y-110.93
X120.28Y-120.93
X138.81Y-138.79
X143.81Y-138.79
T15
X79.687Y-40.429
X79.687Y-50.589
X89.847Y-40.429
X89.847Y-50.589
X75.59Y-130.12
X83.09Y-130.12
X93.912Y-40.454
X93.912Y-50.614
X104.072Y-40.454
X104.072Y-50.614
X141.91Y-112.76
X141.91Y-123.68
X75.7Y-149.91
X83.2Y-149.91
T16
X87.48Y-65.33
X87.48Y-72.95
X87.48Y-80.57
X87.48Y-83.11
X95.1Y-65.33
X95.1Y-72.95
X95.1Y-80.57
X95.1Y-83.11
T17
X189.23Y-36.745
X190.13Y-50.245
X203.83Y-50.245
X204.93Y-36.745
X169.49Y-36.745
X170.39Y-50.245
X184.09Y-50.245
X185.19Y-36.745
X209.01Y-36.805
X209.91Y-50.305
X223.61Y-50.305
X224.71Y-36.805
T18
X84.767Y-46.789
X98.992Y-46.814
T19
X122.34Y-129.27
X122.34Y-152.97
T20
X154.85Y-153.0
X212.85Y-104.0
X154.85Y-104.0
X212.85Y-153.0
T21
X68.92Y-101.66
T22
X68.92Y-55.72
T23
X124.66Y-45.98
X149.65Y-45.98
T24
X64.47Y-110.68
X88.47Y-110.68
T25
X230.38Y-154.78
X65.01Y-37.95
X65.03Y-154.77
X230.38Y-37.96
T26
X128.61Y-118.21
X158.81Y-118.21
T0
M30
