G04 #@! TF.GenerationSoftware,KiCad,Pcbnew,5.1.5-52549c5~84~ubuntu18.04.1*
G04 #@! TF.CreationDate,2020-01-14T00:11:37-08:00*
G04 #@! TF.ProjectId,Pi_Blackbox,50695f42-6c61-4636-9b62-6f782e6b6963,R3*
G04 #@! TF.SameCoordinates,Original*
G04 #@! TF.FileFunction,Copper,L4,Inr*
G04 #@! TF.FilePolarity,Positive*
%FSLAX46Y46*%
G04 Gerber Fmt 4.6, Leading zero omitted, Abs format (unit mm)*
G04 Created by KiCad (PCBNEW 5.1.5-52549c5~84~ubuntu18.04.1) date 2020-01-14 00:11:37*
%MOMM*%
%LPD*%
G04 APERTURE LIST*
%ADD10C,1.200000*%
%ADD11C,1.100000*%
%ADD12C,1.300000*%
%ADD13C,1.250000*%
%ADD14C,2.000000*%
%ADD15C,3.200000*%
%ADD16C,1.500000*%
%ADD17C,2.800000*%
%ADD18C,2.300000*%
%ADD19R,2.800000X2.800000*%
%ADD20C,4.400000*%
%ADD21C,1.150000*%
%ADD22C,1.473200*%
%ADD23R,1.473200X1.473200*%
%ADD24C,1.700000*%
%ADD25R,1.700000X1.700000*%
%ADD26C,2.400000*%
%ADD27R,2.400000X2.400000*%
%ADD28C,1.600000*%
%ADD29O,1.600000X2.400000*%
%ADD30R,1.600000X2.400000*%
%ADD31C,4.500000*%
%ADD32C,6.350000*%
%ADD33C,2.600000*%
%ADD34R,2.600000X2.600000*%
%ADD35R,2.500000X2.500000*%
%ADD36C,2.500000*%
%ADD37C,5.000000*%
%ADD38R,2.000000X2.000000*%
%ADD39C,0.500000*%
%ADD40C,0.400000*%
%ADD41C,2.200000*%
%ADD42C,3.000000*%
%ADD43R,1.458000X1.458000*%
%ADD44C,1.458000*%
%ADD45C,4.116000*%
%ADD46C,0.800000*%
%ADD47C,5.400000*%
%ADD48O,2.000000X1.905000*%
%ADD49R,2.000000X1.905000*%
%ADD50C,7.000000*%
%ADD51O,1.700000X1.700000*%
%ADD52C,0.600000*%
%ADD53C,0.650000*%
%ADD54C,0.350000*%
%ADD55C,0.750000*%
%ADD56C,0.250000*%
%ADD57C,1.000000*%
%ADD58C,0.500000*%
%ADD59C,1.250000*%
%ADD60C,0.400000*%
%ADD61C,1.500000*%
%ADD62C,0.300000*%
%ADD63C,0.450000*%
G04 APERTURE END LIST*
D10*
X206105000Y-118355000D03*
D11*
X206105000Y-115815000D03*
D10*
X208680000Y-118355000D03*
X208680000Y-115815000D03*
X208680000Y-113275000D03*
X206105000Y-113275000D03*
D12*
X234065000Y-125975000D03*
D13*
X231525000Y-125975000D03*
X228985000Y-125975000D03*
X221365000Y-125975000D03*
X218825000Y-125975000D03*
X216285000Y-125975000D03*
X213745000Y-125975000D03*
X211205000Y-125975000D03*
X208665000Y-125975000D03*
X206125000Y-125975000D03*
X203585000Y-125975000D03*
X234065000Y-110735000D03*
X231525000Y-110735000D03*
X223905000Y-110735000D03*
X221365000Y-110735000D03*
X218825000Y-110735000D03*
X216285000Y-110735000D03*
X213745000Y-110735000D03*
X211205000Y-110735000D03*
X208665000Y-110735000D03*
X206125000Y-110735000D03*
X203585000Y-110735000D03*
X201045000Y-125975000D03*
X201045000Y-123435000D03*
X201045000Y-120895000D03*
X201045000Y-110735000D03*
X201045000Y-118355000D03*
D14*
X89847000Y-50589000D03*
X89847000Y-40429000D03*
X79687000Y-50589000D03*
X79687000Y-40429000D03*
D15*
X84767000Y-46789000D03*
D16*
X97880000Y-65330000D03*
X97880000Y-72905000D03*
X97880000Y-80570000D03*
X97880000Y-83110000D03*
X84705000Y-83110000D03*
X84705000Y-80570000D03*
X84705000Y-72950000D03*
X84705000Y-65330000D03*
D17*
X95100000Y-72950000D03*
D18*
X95100000Y-80570000D03*
X95100000Y-83110000D03*
D19*
X87480000Y-65330000D03*
D17*
X95100000Y-65330000D03*
X87480000Y-72950000D03*
D18*
X87480000Y-83110000D03*
X87480000Y-80570000D03*
D20*
X64470000Y-110680000D03*
X88470000Y-110680000D03*
D21*
X62195000Y-116090000D03*
X62220000Y-118780000D03*
X92795000Y-118480000D03*
X92795000Y-116255000D03*
D22*
X171350000Y-118368800D03*
D23*
X171350000Y-124160000D03*
D24*
X106440000Y-107148800D03*
D25*
X106440000Y-112940000D03*
D26*
X99630000Y-92255000D03*
D27*
X104630000Y-92255000D03*
D28*
X64960000Y-128240000D03*
X64960000Y-123240000D03*
D14*
X67670000Y-146390000D03*
X67670000Y-131530000D03*
D29*
X173780000Y-84110000D03*
X181400000Y-91730000D03*
X176320000Y-84110000D03*
X178860000Y-91730000D03*
X178860000Y-84110000D03*
X176320000Y-91730000D03*
X181400000Y-84110000D03*
D30*
X173780000Y-91730000D03*
D14*
X107280000Y-44630000D03*
X76250000Y-44590000D03*
X132262000Y-156874000D03*
D31*
X122340000Y-129270000D03*
X122340000Y-152970000D03*
D32*
X158810000Y-118210000D03*
X128610000Y-118210000D03*
D33*
X141910000Y-123680000D03*
D34*
X141910000Y-112760000D03*
D35*
X83090000Y-130120000D03*
D36*
X75590000Y-130120000D03*
D35*
X83200000Y-149910000D03*
D36*
X75700000Y-149910000D03*
D37*
X68920000Y-55720000D03*
X68920000Y-101660000D03*
D26*
X143810000Y-138790000D03*
D27*
X138810000Y-138790000D03*
D14*
X96930000Y-101120000D03*
D38*
X91930000Y-101120000D03*
D39*
X159210000Y-139880000D03*
X159210000Y-138480000D03*
X160210000Y-139880000D03*
X160210000Y-138480000D03*
X161210000Y-139880000D03*
X161210000Y-138480000D03*
D15*
X98992000Y-46814000D03*
D14*
X93912000Y-40454000D03*
X93912000Y-50614000D03*
X104072000Y-40454000D03*
X104072000Y-50614000D03*
D39*
X118610000Y-95380000D03*
X117610000Y-95380000D03*
X118610000Y-94380000D03*
X117610000Y-94380000D03*
X118610000Y-93380000D03*
X117610000Y-93380000D03*
D40*
X119710000Y-38045000D03*
X114810000Y-38045000D03*
D41*
X120280000Y-110930000D03*
X112780000Y-110930000D03*
X112780000Y-120930000D03*
X120280000Y-120930000D03*
D39*
X117580000Y-100780000D03*
X118580000Y-100780000D03*
X117580000Y-101780000D03*
X118580000Y-101780000D03*
X117580000Y-102780000D03*
X118580000Y-102780000D03*
D42*
X223610000Y-50305000D03*
X209910000Y-50305000D03*
X224710000Y-36805000D03*
X209010000Y-36805000D03*
X203830000Y-50245000D03*
X190130000Y-50245000D03*
X204930000Y-36745000D03*
X189230000Y-36745000D03*
D43*
X131675000Y-47250000D03*
D44*
X133045000Y-44710000D03*
X134415000Y-47250000D03*
X135785000Y-44710000D03*
X137155000Y-47250000D03*
X138525000Y-44710000D03*
X139895000Y-47250000D03*
X141265000Y-44710000D03*
X142635000Y-47250000D03*
D45*
X124660000Y-45980000D03*
X149650000Y-45980000D03*
D42*
X169490000Y-36745000D03*
X185190000Y-36745000D03*
X170390000Y-50245000D03*
X184090000Y-50245000D03*
D28*
X135520000Y-71950000D03*
X130520000Y-71950000D03*
X126140000Y-75330000D03*
X126140000Y-70330000D03*
X106950000Y-70670000D03*
X111950000Y-70670000D03*
D26*
X66180000Y-71130000D03*
D27*
X71180000Y-71130000D03*
D39*
X76150000Y-84270000D03*
X77150000Y-84270000D03*
X76150000Y-83270000D03*
X77150000Y-83270000D03*
X76150000Y-82270000D03*
X77150000Y-82270000D03*
D26*
X104540000Y-127390000D03*
D27*
X109540000Y-127390000D03*
D46*
X156281891Y-102568109D03*
X154850000Y-101975000D03*
X153418109Y-102568109D03*
X152825000Y-104000000D03*
X153418109Y-105431891D03*
X154850000Y-106025000D03*
X156281891Y-105431891D03*
X156875000Y-104000000D03*
D47*
X154850000Y-104000000D03*
D46*
X156281891Y-151568109D03*
X154850000Y-150975000D03*
X153418109Y-151568109D03*
X152825000Y-153000000D03*
X153418109Y-154431891D03*
X154850000Y-155025000D03*
X156281891Y-154431891D03*
X156875000Y-153000000D03*
D47*
X154850000Y-153000000D03*
D46*
X214281891Y-151568109D03*
X212850000Y-150975000D03*
X211418109Y-151568109D03*
X210825000Y-153000000D03*
X211418109Y-154431891D03*
X212850000Y-155025000D03*
X214281891Y-154431891D03*
X214875000Y-153000000D03*
D47*
X212850000Y-153000000D03*
D46*
X214281891Y-102568109D03*
X212850000Y-101975000D03*
X211418109Y-102568109D03*
X210825000Y-104000000D03*
X211418109Y-105431891D03*
X212850000Y-106025000D03*
X214281891Y-105431891D03*
X214875000Y-104000000D03*
D47*
X212850000Y-104000000D03*
D14*
X215750000Y-141350000D03*
D38*
X210750000Y-141350000D03*
D48*
X75420000Y-68390000D03*
X75420000Y-70930000D03*
D49*
X75420000Y-73470000D03*
D48*
X75420000Y-91270000D03*
X75420000Y-93810000D03*
D49*
X75420000Y-96350000D03*
D46*
X232236155Y-152923845D03*
X230380000Y-152155000D03*
X228523845Y-152923845D03*
X227755000Y-154780000D03*
X228523845Y-156636155D03*
X230380000Y-157405000D03*
X232236155Y-156636155D03*
X233005000Y-154780000D03*
D50*
X230380000Y-154780000D03*
D46*
X232236155Y-36103845D03*
X230380000Y-35335000D03*
X228523845Y-36103845D03*
X227755000Y-37960000D03*
X228523845Y-39816155D03*
X230380000Y-40585000D03*
X232236155Y-39816155D03*
X233005000Y-37960000D03*
D50*
X230380000Y-37960000D03*
D46*
X66853478Y-152651733D03*
X64984187Y-151915400D03*
X63141733Y-152716522D03*
X62405400Y-154585813D03*
X63206522Y-156428267D03*
X65075813Y-157164600D03*
X66918267Y-156363478D03*
X67654600Y-154494187D03*
D50*
X65030000Y-154770000D03*
D46*
X66833478Y-36061733D03*
X64964187Y-35325400D03*
X63121733Y-36126522D03*
X62385400Y-37995813D03*
X63186522Y-39838267D03*
X65055813Y-40574600D03*
X66898267Y-39773478D03*
X67634600Y-37904187D03*
D50*
X65010000Y-37950000D03*
D51*
X159855780Y-154276220D03*
X159855780Y-151736220D03*
X162395780Y-154276220D03*
X162395780Y-151736220D03*
X164935780Y-154276220D03*
X164935780Y-151736220D03*
X167475780Y-154276220D03*
X167475780Y-151736220D03*
X170015780Y-154276220D03*
X170015780Y-151736220D03*
X172555780Y-154276220D03*
X172555780Y-151736220D03*
X175095780Y-154276220D03*
X175095780Y-151736220D03*
X177635780Y-154276220D03*
X177635780Y-151736220D03*
X180175780Y-154276220D03*
X180175780Y-151736220D03*
X182715780Y-154276220D03*
X182715780Y-151736220D03*
X185255780Y-154276220D03*
X185255780Y-151736220D03*
X187795780Y-154276220D03*
X187795780Y-151736220D03*
X190335780Y-154276220D03*
X190335780Y-151736220D03*
X192875780Y-154276220D03*
X192875780Y-151736220D03*
X195415780Y-154276220D03*
X195415780Y-151736220D03*
X197955780Y-154276220D03*
X197955780Y-151736220D03*
X200495780Y-154276220D03*
X200495780Y-151736220D03*
X203035780Y-154276220D03*
X203035780Y-151736220D03*
X205575780Y-154276220D03*
X205575780Y-151736220D03*
X208115780Y-154276220D03*
D25*
X208115780Y-151736220D03*
D46*
X191305000Y-77255000D03*
X191305000Y-78230000D03*
D52*
X140830000Y-81680000D03*
X140230000Y-81680000D03*
X143665000Y-63375000D03*
X144260000Y-63280000D03*
D46*
X119217500Y-69017500D03*
X117055000Y-68880000D03*
D52*
X116155000Y-67985000D03*
D46*
X124060000Y-80550000D03*
X124060000Y-79640000D03*
D52*
X203510000Y-145900000D03*
X203510000Y-145290000D03*
X203510000Y-144700000D03*
X230820000Y-100580000D03*
X230820000Y-101140000D03*
X121370000Y-85600000D03*
X121780000Y-86010000D03*
X182670000Y-98530000D03*
X182660000Y-99130000D03*
X225753038Y-110328038D03*
X225752029Y-110927029D03*
X205340000Y-145870000D03*
X205340000Y-145280000D03*
X205340000Y-144680000D03*
X227400000Y-100560000D03*
X227400000Y-101130000D03*
X120485000Y-86365000D03*
X120895000Y-86775000D03*
X181230000Y-100060000D03*
X181230000Y-100660000D03*
X211140000Y-100190000D03*
X210725000Y-100605000D03*
X229300000Y-123190000D03*
X229300000Y-122550000D03*
D46*
X121060000Y-135320000D03*
X118690000Y-132760000D03*
X120210000Y-134470000D03*
X119415000Y-133675000D03*
X100200000Y-155550000D03*
X100200000Y-154700000D03*
X121060000Y-133160000D03*
X120155000Y-131455000D03*
X118830000Y-130790000D03*
X121060000Y-132170000D03*
X117810740Y-129800740D03*
X99268000Y-148772000D03*
X100083000Y-149587000D03*
X191730000Y-85608447D03*
X191730000Y-86355000D03*
X191730000Y-87030000D03*
X110250000Y-69530000D03*
X110250000Y-70340000D03*
X100585000Y-81505000D03*
X99790000Y-81500000D03*
X145105000Y-42075000D03*
X145755000Y-40355000D03*
X152450000Y-42640000D03*
X109575000Y-78385000D03*
X107222500Y-78477500D03*
X136340000Y-56090000D03*
X135530000Y-56090000D03*
X151915000Y-42105000D03*
X164100000Y-48650000D03*
X163320000Y-48650000D03*
X114980000Y-53190000D03*
X115790000Y-53200000D03*
X124306998Y-59553002D03*
X123606998Y-59553002D03*
X122836998Y-59553002D03*
X114905000Y-93405000D03*
X115960000Y-93740000D03*
X119470000Y-98550000D03*
X120270000Y-98550000D03*
X120980000Y-98550000D03*
X127045000Y-51535000D03*
X126460000Y-50960000D03*
X154380000Y-94630000D03*
X153555000Y-94605000D03*
X154355000Y-95430000D03*
X153555000Y-95405000D03*
D52*
X134410000Y-79610000D03*
X134410000Y-79060000D03*
X179020000Y-115160000D03*
X179620000Y-115160000D03*
D46*
X160275000Y-110255000D03*
X159735000Y-109715000D03*
D52*
X193870000Y-90690000D03*
X193870000Y-91260000D03*
X130205000Y-98405000D03*
D46*
X113281000Y-91781000D03*
X112646000Y-91146000D03*
X113916000Y-92416000D03*
X126420000Y-84484000D03*
X125785000Y-83849000D03*
X150995000Y-42075000D03*
X150135000Y-42075000D03*
X146420000Y-52750000D03*
X147230000Y-52750000D03*
X148040000Y-52750000D03*
X148785000Y-52375000D03*
D52*
X101055000Y-88025000D03*
X101055000Y-87435000D03*
D46*
X87400000Y-54610000D03*
X87400000Y-55930000D03*
X87400000Y-55260000D03*
X150915000Y-129075000D03*
X145365000Y-131300000D03*
X142615000Y-131400000D03*
X142415000Y-105100000D03*
X140515000Y-105425000D03*
X156760000Y-112830000D03*
X144590000Y-105150000D03*
X146340000Y-105300000D03*
X153000000Y-110230000D03*
X151480000Y-108900000D03*
X150040000Y-107890000D03*
X148530000Y-106790000D03*
X147800000Y-105750000D03*
X155450000Y-113300000D03*
X158930000Y-112830000D03*
X159800000Y-113410000D03*
X160670000Y-114000000D03*
X161620000Y-114660000D03*
X162410000Y-115490000D03*
X162960000Y-116390000D03*
X163240000Y-117220000D03*
X163230000Y-119570000D03*
X162790000Y-120550000D03*
X162070000Y-121480000D03*
X161170000Y-122220000D03*
X160140000Y-122780000D03*
X159170000Y-123420000D03*
X158010000Y-124280000D03*
X156980000Y-125070000D03*
X155860000Y-125840000D03*
X144040000Y-131500000D03*
X148840000Y-130275000D03*
X137770000Y-129870000D03*
X124320000Y-119600000D03*
X124100000Y-118080000D03*
X124460000Y-116430000D03*
X125620000Y-114860000D03*
X127190000Y-113780000D03*
X128840000Y-112710000D03*
X125170000Y-120920000D03*
X126550000Y-122160000D03*
X128670000Y-123650000D03*
X129780000Y-124390000D03*
X131400000Y-125490000D03*
X132920000Y-126510000D03*
X135015000Y-128200000D03*
X141665000Y-128425000D03*
X143465000Y-128700000D03*
X140315000Y-130900000D03*
X137615000Y-126850000D03*
X135720000Y-125260000D03*
X134860000Y-124200000D03*
X134100000Y-122940000D03*
X133640000Y-121550000D03*
X133040128Y-118250000D03*
X131020000Y-111170000D03*
X132470000Y-110160000D03*
X133890000Y-109220000D03*
X135530000Y-108130000D03*
X137540000Y-106660000D03*
X151720000Y-125110000D03*
X152800000Y-123790000D03*
X153580000Y-122390000D03*
X154170000Y-120280000D03*
X154310000Y-118250000D03*
X154090000Y-116280000D03*
X153615000Y-115000000D03*
X151290000Y-110950000D03*
X150365000Y-110000000D03*
X149450000Y-109250000D03*
X147700000Y-108310000D03*
X145430000Y-107690000D03*
X143490000Y-107560000D03*
X141480000Y-107660000D03*
X139500000Y-108400000D03*
X137880000Y-109310000D03*
X136460000Y-110280000D03*
X135290000Y-111740000D03*
X133930000Y-113590000D03*
X147490000Y-127925000D03*
X161900000Y-94880000D03*
X162730000Y-94880000D03*
X161060000Y-94870000D03*
X158020000Y-112690000D03*
X144140000Y-145270000D03*
X143107500Y-143402500D03*
X138925000Y-140905000D03*
X139500000Y-141480000D03*
X140115000Y-142095000D03*
X138802500Y-137397500D03*
X138802500Y-134767500D03*
X135270000Y-138840000D03*
X134510000Y-138840000D03*
X129510000Y-138770000D03*
X130900000Y-138770000D03*
X146090000Y-148520000D03*
X146120000Y-149330000D03*
X166470000Y-137035000D03*
X166470000Y-137760000D03*
X157590000Y-130570000D03*
X158589999Y-131569999D03*
X156600000Y-131560000D03*
X150230000Y-151230000D03*
X150230000Y-152355000D03*
X150230000Y-153355000D03*
X150230000Y-154505000D03*
X150892500Y-155417500D03*
D52*
X211068750Y-147201250D03*
X211270000Y-148060000D03*
X211445000Y-149495000D03*
X211020000Y-149920000D03*
X210147500Y-149842500D03*
D46*
X152430000Y-148970000D03*
X151380000Y-150080000D03*
X150817500Y-150642500D03*
X221400000Y-146880000D03*
X220410000Y-147870000D03*
X140755000Y-54330000D03*
X141560000Y-54330000D03*
X142350000Y-54330000D03*
X157150000Y-45380000D03*
X156267500Y-44512500D03*
X157082500Y-44512500D03*
X187460259Y-77571745D03*
X187460259Y-78371745D03*
X111410000Y-62590000D03*
X110830000Y-62040000D03*
X110850000Y-57400000D03*
X108700000Y-58420000D03*
X133750000Y-67950000D03*
D52*
X146020000Y-86400000D03*
X147800000Y-86400000D03*
X146880000Y-86400000D03*
D46*
X133617500Y-67126500D03*
D52*
X138630000Y-67940000D03*
X138005000Y-67955000D03*
X147340000Y-62100000D03*
X147160000Y-62660000D03*
D46*
X153015000Y-56665000D03*
X152340000Y-57330000D03*
X104717798Y-145872202D03*
X104020000Y-145870000D03*
X175280000Y-104140000D03*
X175280000Y-104950000D03*
D52*
X194635000Y-76645000D03*
X195035000Y-77045000D03*
X198150000Y-76580000D03*
X201910000Y-76370000D03*
X201470000Y-76800000D03*
X198150000Y-77170000D03*
X186500000Y-139610000D03*
X186510000Y-139030000D03*
X198172500Y-109647500D03*
X197772500Y-110047500D03*
X197392500Y-110492500D03*
D46*
X196740000Y-58335000D03*
X197610000Y-57935000D03*
X177050000Y-58105000D03*
X177950000Y-58105000D03*
X80855000Y-59405000D03*
X81680000Y-59405000D03*
D52*
X95050000Y-87730000D03*
X95650000Y-87730000D03*
X96260000Y-87730000D03*
X192580000Y-71570000D03*
X192990000Y-71980000D03*
X194560000Y-125580000D03*
X194560000Y-125030000D03*
X214310000Y-65610000D03*
X214310000Y-66180000D03*
X204770000Y-70590000D03*
X205340000Y-70590000D03*
X201590000Y-134460000D03*
X201590000Y-133860000D03*
X208495000Y-82785000D03*
X208915000Y-83205000D03*
X205790000Y-80080000D03*
X205380000Y-79640000D03*
X199980000Y-71690000D03*
X199210000Y-72020000D03*
X195020000Y-67370000D03*
X195570000Y-67370000D03*
X199980000Y-137180000D03*
X199990000Y-136580000D03*
X194150000Y-119920000D03*
X194575000Y-120345000D03*
X150525000Y-88775000D03*
X150525000Y-89380000D03*
X196750000Y-147500000D03*
X196990000Y-146950000D03*
X167540000Y-124120000D03*
X168130000Y-124120000D03*
X150710000Y-73500000D03*
X150710000Y-72920000D03*
X146840000Y-79370000D03*
X146840000Y-79960000D03*
X214142500Y-123692500D03*
X213717500Y-123267500D03*
X155750000Y-60450000D03*
X155750000Y-59900000D03*
X176410000Y-149530000D03*
X176410000Y-148920000D03*
D46*
X212018000Y-80928000D03*
X212018000Y-81690000D03*
X158297000Y-48797000D03*
X158805000Y-48289000D03*
D52*
X220955000Y-134355000D03*
X221555000Y-134355000D03*
X96815000Y-109315000D03*
X97235000Y-108895000D03*
X97665000Y-108465000D03*
D46*
X85530000Y-94305000D03*
X85692500Y-93517500D03*
X89705000Y-94430000D03*
X89705000Y-95230000D03*
X90805000Y-98355000D03*
X90805000Y-97605000D03*
X161745000Y-102015000D03*
X162495000Y-102015000D03*
D52*
X174140000Y-77930000D03*
X174750000Y-77930000D03*
X171490000Y-93350000D03*
X171510000Y-93970000D03*
X170990000Y-93700000D03*
D46*
X174080000Y-94800000D03*
X173250000Y-94790000D03*
X171855000Y-82925000D03*
X128450000Y-41860000D03*
X128450000Y-41080000D03*
X171855000Y-83725000D03*
X177090000Y-78830000D03*
X177095000Y-79575000D03*
X152005000Y-98855000D03*
X152005000Y-98055000D03*
X152005000Y-97255000D03*
X172420000Y-94810000D03*
X178750000Y-104030000D03*
X177960000Y-104800000D03*
X177070000Y-105630000D03*
D52*
X169850000Y-45480000D03*
X170270000Y-45900000D03*
X170700000Y-46330000D03*
X171120000Y-46750000D03*
D46*
X101640000Y-51020000D03*
X101640000Y-51800000D03*
D52*
X183960000Y-63070000D03*
X183360000Y-63070000D03*
X185200000Y-117955000D03*
X185200000Y-117385000D03*
X185200000Y-116795000D03*
X186775000Y-55855000D03*
X186130000Y-55855000D03*
X182660000Y-105940000D03*
X182250000Y-105530000D03*
X208310000Y-106390000D03*
X208310000Y-105790000D03*
D46*
X208980000Y-55030000D03*
X208180000Y-55030000D03*
X136930000Y-67105000D03*
X136130000Y-67130000D03*
D52*
X145920000Y-83350000D03*
X146940000Y-83350000D03*
X146010000Y-66070000D03*
D46*
X145920000Y-82630000D03*
D52*
X145554134Y-66444134D03*
D46*
X156095000Y-53855000D03*
X156500000Y-54700000D03*
X114890000Y-153570000D03*
X119370000Y-153830000D03*
X115830000Y-152760000D03*
X116820000Y-153720000D03*
X117100000Y-152630000D03*
X118420000Y-153610000D03*
X119050000Y-152910000D03*
X111250000Y-151740000D03*
X113725000Y-152665000D03*
X112215000Y-152665000D03*
X120270000Y-155130000D03*
X121780000Y-155870000D03*
X124500000Y-155040000D03*
X125270000Y-153700000D03*
X123280000Y-155850000D03*
X175930000Y-57930000D03*
X175930000Y-58580000D03*
X172305000Y-57880000D03*
X170105000Y-58005000D03*
D52*
X187830000Y-147350000D03*
D46*
X225380000Y-147600000D03*
X224575000Y-146795000D03*
X217350000Y-58745000D03*
X102905000Y-91055000D03*
X102955000Y-91855000D03*
X100930000Y-84505000D03*
D52*
X100260329Y-84505000D03*
D46*
X87480000Y-96755000D03*
X86830000Y-97505000D03*
X87230000Y-100305000D03*
X87017500Y-101067500D03*
X127390000Y-58910000D03*
X127760000Y-59640000D03*
X123450000Y-53140000D03*
X124540834Y-53239166D03*
X144040000Y-59320000D03*
X144050000Y-60120000D03*
X112920000Y-38550000D03*
X112910000Y-37710000D03*
X145170000Y-64225001D03*
X146050000Y-64225001D03*
X137290000Y-60250000D03*
X135020000Y-60250000D03*
X143690000Y-62075000D03*
X144545000Y-62075000D03*
X221060000Y-55840000D03*
X221050000Y-56650000D03*
X221040000Y-57450000D03*
X214210000Y-60180000D03*
X211630000Y-60180000D03*
X218490000Y-61305000D03*
X210715000Y-64380000D03*
X211480000Y-64380000D03*
X181605000Y-58230000D03*
X181605000Y-57455000D03*
X172230000Y-59930000D03*
X169990000Y-59930000D03*
X169280000Y-59930000D03*
X189280000Y-59930000D03*
X189960000Y-59930000D03*
X192070000Y-59930000D03*
X198820000Y-58455000D03*
X198820000Y-59255000D03*
X178950000Y-58805000D03*
X178950000Y-61030000D03*
X193755000Y-53255000D03*
X194705000Y-53280000D03*
X201430000Y-56955000D03*
X201430000Y-55715000D03*
X191590000Y-64130000D03*
X172345000Y-64135000D03*
X171505000Y-64135000D03*
X191555000Y-63355000D03*
X160140000Y-72480000D03*
X160140000Y-71670000D03*
X160140000Y-70870000D03*
X157220000Y-68815000D03*
X156340000Y-68815000D03*
X171780000Y-52705000D03*
X172530000Y-52705000D03*
X173180000Y-53055000D03*
X159480000Y-61630000D03*
X160305000Y-61605000D03*
X189255000Y-77805000D03*
X189255000Y-79208447D03*
X189230000Y-78455000D03*
X191280000Y-67205000D03*
X190470000Y-67220000D03*
X189660000Y-67220000D03*
X166305000Y-69905000D03*
X166305000Y-69105000D03*
X161805000Y-72480000D03*
X162605000Y-72480000D03*
X163705000Y-72480000D03*
X166280000Y-70705000D03*
X186050000Y-85030000D03*
X184920000Y-85260000D03*
X184890000Y-86310000D03*
X168900000Y-34280000D03*
X160530000Y-34255000D03*
X234650000Y-86330000D03*
X234730000Y-80730000D03*
X234650000Y-75490000D03*
X234930000Y-69680000D03*
X234870000Y-62650000D03*
X234720000Y-55390000D03*
X234720000Y-49560000D03*
X234720000Y-43030000D03*
X234710000Y-37550000D03*
X233040000Y-34680000D03*
X226080000Y-34220000D03*
X228390000Y-34170000D03*
X223410000Y-34280000D03*
X218130000Y-34280000D03*
X212840000Y-34280000D03*
X205930000Y-34280000D03*
X200320000Y-34280000D03*
X195390000Y-34280000D03*
X185720000Y-34280000D03*
X180420000Y-34280000D03*
X174560000Y-34280000D03*
X163850000Y-34280000D03*
X166305000Y-67430000D03*
X166305000Y-65955000D03*
X166305000Y-63955000D03*
X166305000Y-60305000D03*
X166305000Y-58180000D03*
X150005000Y-59505000D03*
X146040000Y-61890000D03*
X151123996Y-55010000D03*
X152543996Y-53590000D03*
X155403996Y-50730000D03*
X160540000Y-50730000D03*
X163370000Y-50730000D03*
X165900000Y-50730000D03*
X167950000Y-51800000D03*
X213730000Y-54310000D03*
X213255000Y-53680000D03*
X104210000Y-84515000D03*
X104985000Y-84515000D03*
X98680000Y-87205000D03*
X99455000Y-87005000D03*
X89080000Y-91255000D03*
X90430000Y-90430000D03*
X92190000Y-58030000D03*
X92965000Y-58030000D03*
X93740000Y-58030000D03*
X117360000Y-54880000D03*
X99430000Y-61280000D03*
X118170000Y-54935000D03*
X101400000Y-55110000D03*
X115130000Y-70780000D03*
X119242500Y-71992500D03*
X117061250Y-70948750D03*
X116860000Y-79250000D03*
X116070000Y-79250000D03*
X106421250Y-67508750D03*
X106981250Y-68068750D03*
X105876250Y-66963750D03*
X113725000Y-79250000D03*
X114490000Y-79250000D03*
X164825000Y-40960000D03*
X162060000Y-40960000D03*
X146725000Y-56215000D03*
X126060000Y-62070000D03*
X126060000Y-61270000D03*
X143835000Y-66625000D03*
X143800000Y-65840000D03*
X163550000Y-38455000D03*
X148960000Y-56220000D03*
X150005000Y-56128996D03*
X138865000Y-53665000D03*
X139630000Y-53420000D03*
X158080000Y-38190000D03*
X155925000Y-38545000D03*
X147055000Y-39695000D03*
X147055000Y-39015000D03*
X144200000Y-39600000D03*
X144200000Y-38870000D03*
X160560000Y-39090000D03*
X163550000Y-46890000D03*
X169760000Y-39830000D03*
X168960000Y-39850000D03*
X163550000Y-42830000D03*
X224870000Y-95075000D03*
X224870000Y-94300000D03*
X230450000Y-89710000D03*
X231270000Y-89710000D03*
X113111250Y-105038750D03*
X112581250Y-104508750D03*
X112285000Y-99145000D03*
X110942500Y-101707500D03*
X126330000Y-35655000D03*
X127130000Y-35655000D03*
X138505000Y-36205000D03*
X139265000Y-36205000D03*
X122495000Y-39535000D03*
X123075000Y-38955000D03*
X110945000Y-35655000D03*
X111695000Y-35655000D03*
X120920000Y-44680000D03*
X120690000Y-51620000D03*
X120700000Y-52430000D03*
X113695000Y-85835000D03*
X111935000Y-85215000D03*
X110595000Y-83945000D03*
X131110000Y-94350000D03*
X130450000Y-94350000D03*
X139950000Y-100000000D03*
X139340000Y-100580000D03*
X149250000Y-100350000D03*
X148340000Y-100500000D03*
X159840000Y-87240000D03*
X153505000Y-87255000D03*
X194300000Y-81790000D03*
X190400000Y-86120000D03*
X190400000Y-86940000D03*
X194300000Y-82590000D03*
D52*
X197470000Y-69420000D03*
X197470000Y-68830000D03*
X201165000Y-69715000D03*
X201160000Y-69100000D03*
X193700000Y-70590000D03*
X193167500Y-70352500D03*
X204995000Y-72395000D03*
X200060000Y-76580000D03*
X154130000Y-68800000D03*
X163405000Y-77465000D03*
X191140000Y-90440000D03*
X188057132Y-90372868D03*
X199835010Y-77083205D03*
X166305000Y-56925000D03*
X166305000Y-55935000D03*
X165280828Y-55080828D03*
X163250755Y-55090755D03*
X161360000Y-55100000D03*
X160415000Y-56045000D03*
X160350000Y-56880000D03*
X225145000Y-67385000D03*
X225145000Y-66785000D03*
X225145000Y-66165000D03*
D46*
X124020000Y-97324990D03*
X124970000Y-97324990D03*
D52*
X166685000Y-110535000D03*
X166685000Y-109935000D03*
X166685000Y-109335000D03*
X137280000Y-80120000D03*
X144720000Y-86930000D03*
D46*
X141480000Y-88260000D03*
X141480000Y-89040000D03*
X145410000Y-87580000D03*
D52*
X144740000Y-82840000D03*
X166310000Y-81390000D03*
D46*
X166310000Y-82450000D03*
X166310000Y-83600000D03*
X166310000Y-84880000D03*
X166310000Y-86050000D03*
X166310000Y-87270000D03*
X166310000Y-88550000D03*
X166310000Y-89710000D03*
X166310000Y-90980000D03*
X145320000Y-91320000D03*
X143430000Y-91320000D03*
X141850000Y-91320000D03*
X139320000Y-91320000D03*
X137150000Y-91320000D03*
X134900000Y-91320000D03*
X132830000Y-91320000D03*
X130335000Y-91205000D03*
X128775000Y-89645000D03*
X127390000Y-88260000D03*
X125680000Y-86550000D03*
X124275000Y-85145000D03*
X121340000Y-81400000D03*
X121340000Y-80320000D03*
X122000000Y-78920000D03*
X142190001Y-72749999D03*
X130220000Y-75310000D03*
X146388760Y-76791240D03*
X144747262Y-75132738D03*
X134390000Y-73080000D03*
X133460000Y-74010000D03*
X141400000Y-50370000D03*
X139490000Y-50380000D03*
X135720000Y-50390000D03*
X137630000Y-50420000D03*
X130690000Y-50390000D03*
X153796998Y-52336998D03*
D52*
X203465000Y-92985000D03*
X202860000Y-92985000D03*
D46*
X234730000Y-65830000D03*
X234655000Y-59005000D03*
X234630000Y-52355000D03*
X234630000Y-46005000D03*
D52*
X99400000Y-61970000D03*
X152015000Y-86885000D03*
D46*
X123460000Y-56900000D03*
X124175437Y-57414563D03*
X102150000Y-54830000D03*
X87908750Y-38428750D03*
X88468750Y-37868750D03*
X119930000Y-104940000D03*
X120260000Y-104150000D03*
X120250000Y-102470000D03*
X115930000Y-99690000D03*
X167110000Y-43240000D03*
X167910000Y-43340000D03*
X91017500Y-93767500D03*
X176930000Y-72155000D03*
X177705000Y-72155000D03*
X178505000Y-72155000D03*
X114552500Y-104380000D03*
X115410000Y-104380000D03*
X116230000Y-104380000D03*
X117020000Y-104380000D03*
X117800000Y-104380000D03*
X140040000Y-151110000D03*
X140040000Y-150120000D03*
X140040000Y-149170000D03*
X122060000Y-144920000D03*
X123060000Y-144920000D03*
X124100000Y-144920000D03*
X125250000Y-144920000D03*
X131640000Y-149140000D03*
X131640000Y-150290000D03*
X131640000Y-151690000D03*
X130880000Y-148380000D03*
X66620000Y-89780000D03*
X66620000Y-90530000D03*
X85590000Y-89650000D03*
X86330000Y-89650000D03*
X67590000Y-84840000D03*
X68390000Y-84840000D03*
X69160000Y-89800000D03*
X69160000Y-90590000D03*
X95300000Y-93300000D03*
X94510000Y-93300000D03*
X67620000Y-95910000D03*
X68420000Y-95910000D03*
D52*
X142440000Y-40930000D03*
X142440000Y-40350000D03*
D46*
X162996000Y-125632000D03*
X162996000Y-124870000D03*
D52*
X207130000Y-104100000D03*
X206530000Y-104100000D03*
X186065000Y-110270000D03*
X186030000Y-109680000D03*
D46*
X156980000Y-36710010D03*
X157780000Y-36710010D03*
X158610000Y-36710010D03*
X121245000Y-93405000D03*
X121260000Y-92750000D03*
X98890000Y-130470000D03*
X99500000Y-129760000D03*
X98960000Y-129000000D03*
X99740000Y-131850000D03*
X99640000Y-130960000D03*
X100530000Y-131530000D03*
X100400000Y-132570000D03*
X217495000Y-157055000D03*
X216720000Y-157055000D03*
X215945000Y-157055000D03*
X218695000Y-153605000D03*
X217945000Y-153605000D03*
X217170000Y-153605000D03*
X140320000Y-85560000D03*
X139550000Y-85550000D03*
X138150000Y-73520000D03*
X138150000Y-72740000D03*
D52*
X164755000Y-114885000D03*
X164160000Y-114900000D03*
D46*
X130130000Y-83640000D03*
X130990000Y-84500000D03*
X141705000Y-86885000D03*
X141015000Y-86885000D03*
X112500000Y-49880000D03*
X112510000Y-49080000D03*
X126960000Y-49110000D03*
X126410000Y-48540000D03*
X139240000Y-73730000D03*
X139240000Y-72940000D03*
X130290000Y-87290000D03*
X131300000Y-87290000D03*
X171000000Y-126230000D03*
X170060000Y-126230000D03*
X169170000Y-126230000D03*
X168080000Y-126230000D03*
X71570000Y-142180000D03*
X69230000Y-142180000D03*
X70100000Y-142180000D03*
X70850000Y-142180000D03*
X70050000Y-142970000D03*
X71335950Y-143014050D03*
X70020000Y-135990000D03*
X69374050Y-135315950D03*
X68739050Y-134680950D03*
X68124050Y-134065950D03*
X68160000Y-135300000D03*
X68700000Y-135990000D03*
X72280000Y-78930000D03*
X72280000Y-78030000D03*
X80067500Y-65342500D03*
X79267500Y-65342500D03*
X78467500Y-65342500D03*
X77667500Y-65342500D03*
X76867500Y-65342500D03*
X82761250Y-65648750D03*
X83361250Y-66248750D03*
X83480000Y-67130000D03*
X81080000Y-85630000D03*
X81080000Y-86430000D03*
X81080000Y-87330000D03*
X89255000Y-98505000D03*
X88955000Y-99630000D03*
X88980000Y-100405000D03*
X102820000Y-78220000D03*
X102820000Y-78930000D03*
X89300000Y-121000000D03*
X90050000Y-121000000D03*
X90810000Y-121000000D03*
X94060000Y-121000000D03*
X94870000Y-121000000D03*
X95670000Y-121000000D03*
X124128111Y-111401889D03*
X124060000Y-110600000D03*
X124060000Y-109700000D03*
X124060000Y-108770000D03*
X124090000Y-107840000D03*
X123986763Y-106963237D03*
X161895000Y-110445000D03*
X161895000Y-111145000D03*
D52*
X187360000Y-138290000D03*
D46*
X145360000Y-70180000D03*
X146790000Y-70180000D03*
X146060000Y-70190000D03*
X207535000Y-63755000D03*
X207535000Y-64505000D03*
X186220000Y-64260000D03*
X185710000Y-65060000D03*
X186480000Y-58655000D03*
X168680000Y-70505000D03*
X169855000Y-69330000D03*
X169855000Y-68530000D03*
X168130000Y-71055000D03*
X159780000Y-75535000D03*
X157680000Y-75417500D03*
X161580000Y-75535000D03*
X170905000Y-65280000D03*
X168905000Y-64230000D03*
X167630000Y-58555000D03*
X167630000Y-57680000D03*
X186760000Y-65010000D03*
X209000000Y-65930000D03*
X208500000Y-65370000D03*
X114700000Y-80870000D03*
X113920000Y-80870000D03*
X117210000Y-86660000D03*
X116230000Y-86670000D03*
X229035000Y-99805000D03*
X229030000Y-100600000D03*
X223270000Y-89660000D03*
X222480000Y-89670000D03*
X230935000Y-92425000D03*
X120367500Y-90250000D03*
X121310000Y-90250000D03*
X118081250Y-87088750D03*
X118666250Y-87673750D03*
X193550001Y-136299999D03*
X193550001Y-135559999D03*
D52*
X186550000Y-136780000D03*
X186025000Y-137075000D03*
X180920000Y-136360000D03*
X180920000Y-135740000D03*
X193720000Y-65610000D03*
X193260000Y-66010000D03*
X118670000Y-80970000D03*
X119260000Y-80970000D03*
X158900000Y-90450000D03*
X158820000Y-89850000D03*
X152240000Y-90340000D03*
X147390000Y-89000000D03*
X147390000Y-89630000D03*
X194350000Y-88430000D03*
X194780000Y-88000000D03*
D46*
X208520000Y-90380000D03*
X207370000Y-90380000D03*
X108350000Y-75850000D03*
X108350000Y-75040000D03*
X103860000Y-52650000D03*
X103030000Y-52650000D03*
X104690000Y-52650000D03*
X103860000Y-54830000D03*
X103860000Y-55600000D03*
X102505000Y-62885000D03*
X102505000Y-63685000D03*
X98760000Y-62960000D03*
X97950000Y-62960000D03*
X97130000Y-62960000D03*
X131815000Y-104525000D03*
X126740000Y-100010000D03*
X127610000Y-100000000D03*
X105530000Y-75380000D03*
X105530000Y-74380000D03*
X87640000Y-59680000D03*
X87640000Y-60480000D03*
X89020000Y-43500000D03*
X89910000Y-43500000D03*
X65450000Y-48290000D03*
X66560000Y-48290000D03*
X131217500Y-105227500D03*
X130940000Y-103550000D03*
X160690000Y-125120000D03*
X161260000Y-124550000D03*
X202310000Y-86730000D03*
X201750000Y-87290000D03*
X120180000Y-46870000D03*
X119480000Y-46870000D03*
X118750000Y-46870000D03*
X92870000Y-63140000D03*
X93670000Y-63140000D03*
X105150000Y-38780000D03*
X104370000Y-38780000D03*
X109100000Y-145320000D03*
X109930000Y-145290000D03*
X107500000Y-51620000D03*
X107500000Y-50830000D03*
X129950000Y-78940000D03*
X128900000Y-78940000D03*
X171430000Y-75980000D03*
X170655000Y-75980000D03*
X71090000Y-34220000D03*
X73770000Y-34170000D03*
X61030000Y-118270000D03*
X131750000Y-34280000D03*
X135450000Y-34280000D03*
X139940000Y-34280000D03*
X143920000Y-34280000D03*
X148320000Y-34280000D03*
X152960000Y-34280000D03*
X157340000Y-34280000D03*
X154960000Y-34280000D03*
X93400000Y-129760000D03*
X91660000Y-129680000D03*
X93400000Y-128180000D03*
X93420000Y-126820000D03*
X91760000Y-126800000D03*
X93410000Y-131540000D03*
X91760000Y-131590000D03*
X91650000Y-128160000D03*
X115820000Y-147410000D03*
X116630000Y-147690000D03*
X114960000Y-147670000D03*
X116710000Y-148910000D03*
X115900000Y-149610000D03*
X115010000Y-148910000D03*
X105780000Y-148020000D03*
X108729951Y-148008941D03*
X108789951Y-149438941D03*
X107289951Y-147998941D03*
X105809951Y-149438941D03*
X102790000Y-158530000D03*
X109470000Y-158540000D03*
X101180000Y-158530000D03*
X99160000Y-158530000D03*
X96470000Y-158530000D03*
X93850000Y-158530000D03*
X91190000Y-158530000D03*
X88250000Y-158530000D03*
X85020000Y-158530000D03*
X81410000Y-158530000D03*
X78750000Y-158530000D03*
X87160000Y-34280000D03*
X90055000Y-34230000D03*
X97870000Y-34280000D03*
X104920000Y-34280000D03*
X108950000Y-34280000D03*
X112380000Y-34280000D03*
X115960000Y-34280000D03*
X120000000Y-34280000D03*
X124080000Y-34280000D03*
X128150000Y-34280000D03*
X226860000Y-158540000D03*
X220950000Y-158540000D03*
X211520000Y-158540000D03*
X202980000Y-158510000D03*
X192900000Y-158620000D03*
X188730000Y-158540000D03*
X181630000Y-158540000D03*
X167440000Y-158540000D03*
X172610000Y-158520000D03*
X105250000Y-158540000D03*
X108480000Y-158540000D03*
X112590000Y-158540000D03*
X117020000Y-158540000D03*
X122330000Y-158540000D03*
X129710000Y-158540000D03*
X135290000Y-158540000D03*
X141090000Y-158540000D03*
X146110000Y-158540000D03*
X151620000Y-158540000D03*
X157660000Y-158540000D03*
X164310000Y-158540000D03*
X161050000Y-158540000D03*
X75740000Y-34180000D03*
X80310000Y-34220000D03*
X83760000Y-34220000D03*
X77810000Y-34220000D03*
X74400000Y-158530000D03*
X223880000Y-158540000D03*
X107209951Y-149448941D03*
X104100000Y-142110000D03*
X219210000Y-158540000D03*
X61290000Y-46870000D03*
X61480000Y-52340000D03*
X178480000Y-76730000D03*
X178480000Y-75980000D03*
X178480000Y-75155000D03*
X177940000Y-110710000D03*
X209630000Y-154205000D03*
X209640000Y-155010000D03*
X106210000Y-158540000D03*
X107714951Y-154865049D03*
X108664951Y-154865049D03*
X109445000Y-155085000D03*
X104070000Y-141300000D03*
X105444951Y-141825049D03*
X109910000Y-130790000D03*
X114550000Y-130790000D03*
X115375000Y-129845000D03*
X115400000Y-131860000D03*
X115375000Y-128815000D03*
X76650000Y-81160000D03*
X76650000Y-78900000D03*
X86040000Y-68430000D03*
X86860000Y-68430000D03*
X87700000Y-68430000D03*
X101942500Y-66005000D03*
X101942500Y-64757500D03*
X101942500Y-67627500D03*
X125718389Y-134258389D03*
X126283389Y-133693389D03*
X126888389Y-133088389D03*
X129760000Y-132600000D03*
X128940000Y-132600000D03*
X128090000Y-132580000D03*
X150632500Y-137847500D03*
X153092500Y-137847500D03*
X155442500Y-137722500D03*
X157050000Y-138090000D03*
X150350000Y-141080000D03*
X149570000Y-141080000D03*
X144865000Y-139845000D03*
X145385000Y-140365000D03*
X111000000Y-120930000D03*
X110460000Y-121470000D03*
X107385000Y-124545000D03*
X106755000Y-125175000D03*
X105960000Y-125970000D03*
X129710000Y-155020000D03*
X103420000Y-46580000D03*
X97880000Y-50555000D03*
X97870000Y-51360000D03*
X104330000Y-46550000D03*
X105480000Y-46550000D03*
X106840000Y-46550000D03*
X108050000Y-46550000D03*
X109110000Y-45600000D03*
X109170000Y-43900000D03*
X108120000Y-42850000D03*
X106540000Y-42790000D03*
X105180000Y-42790000D03*
X103820000Y-42790000D03*
X99580000Y-42790000D03*
X98755000Y-43615000D03*
X96270000Y-44760000D03*
X100260000Y-52730000D03*
X100270000Y-51210000D03*
X171005000Y-75105000D03*
X176835000Y-88685000D03*
X177375000Y-88145000D03*
X166480000Y-103940000D03*
X167280000Y-103940000D03*
X164795000Y-95665000D03*
X164795000Y-94995000D03*
X176230000Y-108370000D03*
X165640000Y-103100000D03*
D52*
X191842399Y-143581000D03*
X192256700Y-143166700D03*
X186101700Y-142881700D03*
X186110000Y-142280000D03*
X197930000Y-143600000D03*
X198346700Y-143226700D03*
X190820000Y-147490000D03*
X191300000Y-147050000D03*
X207170000Y-144590000D03*
X207170000Y-145190000D03*
X177035000Y-109805000D03*
X231660000Y-102670000D03*
X231660000Y-103240000D03*
X181715000Y-99325000D03*
X182260000Y-99870000D03*
X212390000Y-135450000D03*
X213010000Y-135450000D03*
D46*
X191510000Y-132370000D03*
X190780000Y-132370000D03*
X192256700Y-140753300D03*
X192256700Y-140753300D03*
X192256700Y-140003300D03*
D52*
X147810000Y-67990000D03*
X147790000Y-67395000D03*
X146347500Y-67687500D03*
D46*
X65805000Y-114180000D03*
X67155000Y-114230000D03*
X68280000Y-114230000D03*
X69530000Y-114230000D03*
X70780000Y-114280000D03*
X71480000Y-113030000D03*
X71880000Y-111105000D03*
X63555000Y-114180000D03*
X62130000Y-114105000D03*
X62590000Y-104850000D03*
X61430000Y-102790000D03*
X61350000Y-99730000D03*
X61170000Y-96450000D03*
X61130000Y-92590000D03*
X61160000Y-87700000D03*
X61080000Y-78380000D03*
X61420000Y-73660000D03*
X61460000Y-64420000D03*
X61510000Y-58370000D03*
X61470000Y-53970000D03*
X67110000Y-34210000D03*
X68305000Y-34305000D03*
X61550000Y-151210000D03*
X61750000Y-140470000D03*
X61570000Y-137830000D03*
X68200000Y-158510000D03*
X69355000Y-158330000D03*
X234505000Y-152030000D03*
X234530000Y-149205000D03*
X234505000Y-145980000D03*
X234455000Y-142530000D03*
X234580000Y-137880000D03*
X234630000Y-131030000D03*
X234630000Y-128605000D03*
X234530000Y-119905000D03*
X234580000Y-115480000D03*
X234555000Y-113005000D03*
X234530000Y-106705000D03*
X234530000Y-103280000D03*
X234530000Y-96630000D03*
X234530000Y-89980000D03*
X161860000Y-71080000D03*
X162670000Y-71080000D03*
X163440000Y-71080000D03*
X164090000Y-71080000D03*
X203980000Y-81220000D03*
X203180000Y-81220000D03*
X210800000Y-83400000D03*
X210240000Y-82840000D03*
X224220000Y-78490000D03*
X225030000Y-79300000D03*
X96426001Y-49163999D03*
X95596001Y-49163999D03*
X91986001Y-49163999D03*
X88140000Y-45890000D03*
X87951000Y-46789000D03*
X102670000Y-47370000D03*
X102900000Y-42750000D03*
X100650000Y-42780000D03*
X156050000Y-144970000D03*
X154890000Y-144970000D03*
X156050000Y-144140000D03*
X154920000Y-144130000D03*
X157356261Y-144956261D03*
X158497500Y-144912500D03*
X159356250Y-144256250D03*
X155320000Y-134750000D03*
X157340000Y-134390000D03*
X158230000Y-134390000D03*
X152987500Y-134770000D03*
X150680000Y-134790000D03*
X109120000Y-143400000D03*
X109120000Y-142580000D03*
X109120000Y-141770000D03*
X83620000Y-96360000D03*
X83230000Y-95505000D03*
X80105000Y-74855000D03*
X80855000Y-74855000D03*
X74720000Y-79270000D03*
X75180000Y-78810000D03*
X136880000Y-133330000D03*
X136880000Y-134230000D03*
X136727500Y-135177500D03*
X135780000Y-134230000D03*
X135780000Y-133430000D03*
D52*
X95715000Y-61295000D03*
X96340000Y-61295000D03*
X97090000Y-61295000D03*
X97723993Y-61223993D03*
D46*
X94670000Y-47080000D03*
X95490000Y-47080000D03*
X96310000Y-47080000D03*
X97070000Y-47080000D03*
X117750000Y-57290000D03*
X118520000Y-57290000D03*
X114900000Y-51360000D03*
X114120000Y-51360000D03*
X139780000Y-65980000D03*
X138980000Y-65980000D03*
X118700000Y-62800000D03*
X119420000Y-63520000D03*
X140550000Y-64675000D03*
X139735000Y-64675000D03*
D52*
X121680000Y-77010000D03*
X121680000Y-76430000D03*
X121634315Y-75835685D03*
X137170000Y-83450000D03*
X136560000Y-83450000D03*
X135970000Y-83450000D03*
D46*
X123460000Y-62770000D03*
X124240000Y-63640000D03*
D52*
X168475000Y-83115000D03*
X168475000Y-82565000D03*
D46*
X162996000Y-129696000D03*
X162996000Y-128934000D03*
D52*
X199960000Y-141880000D03*
X199960000Y-142440000D03*
X201590000Y-140340000D03*
X201600000Y-140940000D03*
X194560000Y-128100000D03*
X194560000Y-128700000D03*
X190770000Y-130140000D03*
X190770000Y-130690000D03*
D46*
X186580000Y-75755000D03*
X187355000Y-75735260D03*
D52*
X196080000Y-74260000D03*
X195480000Y-74260000D03*
X204880000Y-73820000D03*
X204280000Y-73780000D03*
X200050000Y-74370000D03*
X200670000Y-74110000D03*
D46*
X185360000Y-135650000D03*
X186110000Y-135650000D03*
D52*
X218225000Y-64735000D03*
X218635000Y-65145000D03*
X198390000Y-64200000D03*
X198970000Y-64210000D03*
X178550000Y-63847500D03*
X179158939Y-63847500D03*
X186743947Y-88356053D03*
X186734990Y-88935968D03*
X183510000Y-144900000D03*
X185535000Y-146955000D03*
X183930000Y-145330000D03*
X185000000Y-146680000D03*
D46*
X155650000Y-83850000D03*
X154890000Y-83860000D03*
X154120000Y-83860000D03*
X182160000Y-139320000D03*
X182160000Y-140120000D03*
D52*
X154170000Y-65320000D03*
X154780000Y-65320000D03*
X172872500Y-122212500D03*
X172472500Y-121812500D03*
X170560000Y-148220000D03*
X170010000Y-148220000D03*
X196149999Y-144920001D03*
X196140000Y-145520000D03*
X209820000Y-134570000D03*
X210370000Y-134570000D03*
X194200000Y-144970000D03*
X194200000Y-145530000D03*
X172130000Y-146060000D03*
X171550000Y-146060000D03*
X205680000Y-134800000D03*
X206260000Y-134800000D03*
X174610000Y-147160000D03*
X175180000Y-147160000D03*
X194751182Y-139568234D03*
X195167361Y-139163173D03*
X188710000Y-142330000D03*
X188710000Y-141730000D03*
X188700000Y-130230000D03*
X188700000Y-130780000D03*
X215340000Y-64710000D03*
X215340000Y-65270000D03*
X195790000Y-64640000D03*
X195790000Y-64040000D03*
X175870000Y-64250000D03*
X175870000Y-64970000D03*
X187989367Y-88346198D03*
X187995010Y-88921313D03*
X219200000Y-68480000D03*
X218570000Y-68420000D03*
X190660000Y-142320000D03*
X190660000Y-141760000D03*
X190690000Y-135460000D03*
X190690000Y-136020000D03*
X194850000Y-142340000D03*
X194850000Y-141750000D03*
X194890000Y-132240000D03*
X194890000Y-132820000D03*
X196800000Y-142340000D03*
X196800000Y-141760000D03*
X196820000Y-132190000D03*
X196820000Y-132760000D03*
D46*
X178880000Y-140790000D03*
X178890000Y-139200000D03*
X178890000Y-139990000D03*
X154090000Y-81660000D03*
X153340000Y-81660000D03*
X152530000Y-81670000D03*
D52*
X151480000Y-63040000D03*
X152060000Y-63040000D03*
X152660000Y-63040000D03*
X178905926Y-127964074D03*
X178905573Y-127384427D03*
X178901185Y-120183815D03*
X178901520Y-120790000D03*
D46*
X154060000Y-82740000D03*
X153300000Y-82750000D03*
X152520000Y-82750000D03*
X177160000Y-132500000D03*
X177160000Y-131710000D03*
X177150000Y-133300000D03*
D52*
X153370000Y-63940000D03*
X152760000Y-63940000D03*
X152150000Y-63940000D03*
X176085000Y-139745000D03*
X176500000Y-140160000D03*
X144005000Y-71455000D03*
X144005000Y-72030000D03*
X172030000Y-135330000D03*
X172030000Y-135930000D03*
X193415000Y-127035000D03*
X193415000Y-126460000D03*
X188050000Y-138980000D03*
X188060000Y-139580000D03*
X187410000Y-142280000D03*
X187420000Y-141680000D03*
D46*
X203260000Y-108410000D03*
X202470000Y-108410000D03*
D52*
X195810000Y-134550000D03*
X195820000Y-135148001D03*
X196050000Y-139060000D03*
X196050000Y-139660000D03*
X182850000Y-142340000D03*
X182480000Y-141860000D03*
X180970000Y-139250000D03*
X180970000Y-139830000D03*
X180870000Y-145370000D03*
X180870000Y-144770000D03*
X198810000Y-136640000D03*
X198810000Y-137210000D03*
D46*
X168040000Y-108740000D03*
X168605000Y-109305000D03*
X169165000Y-109865000D03*
X182520000Y-108370000D03*
X182520000Y-109160000D03*
X182520000Y-109930000D03*
X201580000Y-102790000D03*
X200800000Y-102790000D03*
X200030000Y-102790000D03*
X224140000Y-82070000D03*
X225180000Y-82070000D03*
X144800000Y-44300000D03*
X145600000Y-44300000D03*
X133420000Y-54580000D03*
X133000000Y-55240000D03*
X136300000Y-58250000D03*
X137060000Y-58250000D03*
X171390000Y-140860000D03*
X172122500Y-140917500D03*
D52*
X170180000Y-87155000D03*
X169580000Y-87155000D03*
X183455000Y-132205000D03*
X184055000Y-132205000D03*
X209655000Y-128105000D03*
X210205000Y-128105000D03*
X172380000Y-77705000D03*
X171805000Y-77705000D03*
X185205000Y-131180000D03*
X185605000Y-130780000D03*
X179080000Y-145405000D03*
X179080000Y-144830000D03*
X193605000Y-123430000D03*
X193605000Y-122855000D03*
D46*
X226160000Y-98200000D03*
X226130000Y-99010000D03*
X216055000Y-108300000D03*
X215275000Y-108315000D03*
X214485000Y-108315000D03*
X106400000Y-47760000D03*
X106400000Y-48580000D03*
X93080000Y-55490000D03*
X92355000Y-55490000D03*
X91555000Y-55490000D03*
X80260000Y-48310000D03*
X79450000Y-48310000D03*
X78650000Y-48310000D03*
D53*
X116160000Y-67985000D02*
X117055000Y-68880000D01*
X116155000Y-67985000D02*
X116160000Y-67985000D01*
X119080000Y-68880000D02*
X119217500Y-69017500D01*
X117055000Y-68880000D02*
X119080000Y-68880000D01*
D54*
X119617499Y-69417499D02*
X122327499Y-69417499D01*
X119217500Y-69017500D02*
X119617499Y-69417499D01*
X124060000Y-71150000D02*
X124060000Y-79640000D01*
X122327499Y-69417499D02*
X124060000Y-71150000D01*
X124060000Y-80550000D02*
X124060000Y-80550000D01*
D55*
X124060000Y-79640000D02*
X124060000Y-80550000D01*
D53*
X230820000Y-101140000D02*
X230820000Y-100580000D01*
D54*
X230240000Y-101720000D02*
X230820000Y-101140000D01*
D53*
X203510000Y-145900000D02*
X203510000Y-144700000D01*
D54*
X225760000Y-106200000D02*
X230820000Y-101140000D01*
X203510000Y-142160000D02*
X208565000Y-137105000D01*
X225750000Y-112130000D02*
X225752029Y-110927029D01*
X203510000Y-145900000D02*
X203510000Y-142160000D01*
X208565000Y-137105000D02*
X223585000Y-137105000D01*
X223585000Y-137105000D02*
X225750000Y-134940000D01*
X225750000Y-134940000D02*
X225750000Y-112130000D01*
X225753038Y-110328038D02*
X225760000Y-106200000D01*
D55*
X225752029Y-110927029D02*
X225753038Y-110328038D01*
D54*
X232540000Y-99980000D02*
X231300000Y-98740000D01*
X231300000Y-98740000D02*
X228250000Y-98740000D01*
X228250000Y-98740000D02*
X227400000Y-99590000D01*
D53*
X210725000Y-100605000D02*
X211140000Y-100190000D01*
D56*
X211140000Y-100190000D02*
X223190000Y-100190000D01*
X223190000Y-100190000D02*
X225310000Y-102310000D01*
X225310000Y-102310000D02*
X226780000Y-102310000D01*
X227400000Y-101690000D02*
X227400000Y-100560000D01*
X226780000Y-102310000D02*
X227400000Y-101690000D01*
D53*
X205340000Y-145870000D02*
X205340000Y-144680000D01*
D54*
X232890000Y-105170000D02*
X232890000Y-100330000D01*
X232890000Y-100330000D02*
X231300000Y-98740000D01*
X229300000Y-108760000D02*
X232890000Y-105170000D01*
X210725000Y-100605000D02*
X209355000Y-101975000D01*
X209355000Y-101975000D02*
X209355000Y-105480000D01*
X209355000Y-105480000D02*
X213705000Y-109830000D01*
X213745000Y-109851117D02*
X213745000Y-110735000D01*
X213705000Y-109830000D02*
X213723883Y-109830000D01*
X213723883Y-109830000D02*
X213745000Y-109851117D01*
X229300000Y-122550000D02*
X229300000Y-108760000D01*
D55*
X229300000Y-123190000D02*
X229300000Y-122550000D01*
D54*
X229300000Y-123710000D02*
X229300000Y-123190000D01*
X227310000Y-125700000D02*
X229300000Y-123710000D01*
X227310000Y-128660000D02*
X227310000Y-125700000D01*
X205340000Y-143600000D02*
X209450000Y-139530000D01*
X205340000Y-144680000D02*
X205340000Y-143600000D01*
X209450000Y-139530000D02*
X224860000Y-139530000D01*
X224860000Y-139530000D02*
X228670000Y-135720000D01*
X228670000Y-130020000D02*
X227310000Y-128660000D01*
D55*
X227400000Y-101130000D02*
X227400000Y-100560000D01*
D54*
X227400000Y-100135736D02*
X227400000Y-99590000D01*
D56*
X227400000Y-100560000D02*
X227400000Y-100135736D01*
D54*
X228670000Y-135720000D02*
X228670000Y-130020000D01*
D55*
X87400000Y-55620000D02*
X87410000Y-55630000D01*
X87400000Y-54830000D02*
X87400000Y-55620000D01*
D57*
X87410000Y-56195685D02*
X91144315Y-59930000D01*
D53*
X87410000Y-55630000D02*
X87410000Y-56195685D01*
D57*
X91144315Y-59930000D02*
X105170000Y-59930000D01*
X110250000Y-65010000D02*
X110250000Y-70340000D01*
X105170000Y-59930000D02*
X110250000Y-65010000D01*
X87400000Y-56185685D02*
X87410000Y-56195685D01*
X87400000Y-54830000D02*
X87400000Y-56185685D01*
X151915000Y-42105000D02*
X152450000Y-42640000D01*
X164100000Y-48650000D02*
X162090000Y-48650000D01*
X162090000Y-48650000D02*
X159220000Y-45780000D01*
X159220000Y-45780000D02*
X159220000Y-43860000D01*
X158000000Y-42640000D02*
X152450000Y-42640000D01*
X159220000Y-43860000D02*
X158000000Y-42640000D01*
X151885000Y-42075000D02*
X151915000Y-42105000D01*
X114905000Y-93405000D02*
X112646000Y-91146000D01*
D55*
X107222500Y-79043185D02*
X107222500Y-78477500D01*
D57*
X107222500Y-85156815D02*
X107222500Y-79043185D01*
D55*
X112646000Y-91146000D02*
X112646000Y-90580315D01*
D57*
X112646000Y-90580315D02*
X107222500Y-85156815D01*
D55*
X107222500Y-77911815D02*
X107180000Y-77869315D01*
X107222500Y-78477500D02*
X107222500Y-77911815D01*
D57*
X107180000Y-73410000D02*
X110250000Y-70340000D01*
X107180000Y-77869315D02*
X107180000Y-73410000D01*
D55*
X109482500Y-78477500D02*
X109575000Y-78385000D01*
D57*
X107222500Y-78477500D02*
X109482500Y-78477500D01*
D53*
X157082500Y-44512500D02*
X157082500Y-44512500D01*
X157082500Y-44512500D02*
X157130000Y-44560000D01*
X146020000Y-86400000D02*
X147800000Y-86400000D01*
D54*
X146020000Y-86400000D02*
X144612000Y-84992000D01*
X144612000Y-84992000D02*
X142168000Y-84992000D01*
X142168000Y-84992000D02*
X140898000Y-83722000D01*
X140898000Y-83722000D02*
X139628000Y-83722000D01*
X139628000Y-83722000D02*
X138104000Y-82198000D01*
X138104000Y-82198000D02*
X133786000Y-82198000D01*
X133786000Y-82198000D02*
X132008000Y-80420000D01*
X132008000Y-80420000D02*
X132008000Y-73308000D01*
X133750000Y-71566000D02*
X133750000Y-67950000D01*
X132008000Y-73308000D02*
X133750000Y-71566000D01*
X133750000Y-67259000D02*
X133617500Y-67126500D01*
D53*
X133617500Y-67817500D02*
X133750000Y-67950000D01*
X133617500Y-67126500D02*
X133617500Y-67817500D01*
D58*
X194635000Y-76645000D02*
X196740000Y-78750000D01*
X196740000Y-78750000D02*
X198070000Y-78750000D01*
X198150000Y-78670000D02*
X198150000Y-76580000D01*
X198070000Y-78750000D02*
X198150000Y-78670000D01*
X199530000Y-78750000D02*
X201910000Y-76370000D01*
X197970000Y-78750000D02*
X199530000Y-78750000D01*
D56*
X187160000Y-124940000D02*
X187160000Y-125480000D01*
X198650000Y-109170000D02*
X198172500Y-109647500D01*
X198650000Y-107560000D02*
X198650000Y-109170000D01*
X196790000Y-111030000D02*
X188090000Y-111030000D01*
X186420000Y-95460000D02*
X188080000Y-97120000D01*
X186410000Y-104740000D02*
X187750000Y-106080000D01*
X198150000Y-89320000D02*
X194650000Y-92820000D01*
X197170000Y-106080000D02*
X198650000Y-107560000D01*
X194650000Y-92820000D02*
X187620000Y-92820000D01*
X187620000Y-92820000D02*
X186420000Y-94020000D01*
X187090000Y-112030000D02*
X187160000Y-125480000D01*
X188090000Y-111030000D02*
X187090000Y-112030000D01*
X186420000Y-94020000D02*
X186420000Y-95460000D01*
X188080000Y-97120000D02*
X197100000Y-97120000D01*
X198150000Y-77170000D02*
X198150000Y-89320000D01*
X197100000Y-97120000D02*
X198630000Y-98650000D01*
X187750000Y-106080000D02*
X197170000Y-106080000D01*
X198630000Y-98650000D02*
X198630000Y-100220000D01*
X198630000Y-100220000D02*
X197520000Y-101330000D01*
X197520000Y-101330000D02*
X188310000Y-101330000D01*
X186410000Y-103230000D02*
X186410000Y-104740000D01*
X188310000Y-101330000D02*
X186410000Y-103230000D01*
D53*
X186510000Y-139600000D02*
X186500000Y-139610000D01*
X186510000Y-139030000D02*
X186510000Y-139600000D01*
D56*
X198172500Y-109647500D02*
X197772500Y-110047500D01*
X197772500Y-110047500D02*
X196790000Y-111030000D01*
X187160000Y-133310000D02*
X187160000Y-125480000D01*
X187440000Y-134890000D02*
X187160000Y-134610000D01*
X187440000Y-136800202D02*
X187440000Y-134890000D01*
X187160000Y-134610000D02*
X187160000Y-133310000D01*
X186480000Y-138790000D02*
X186480000Y-137760202D01*
X186480000Y-137760202D02*
X187440000Y-136800202D01*
D53*
X95050000Y-87730000D02*
X96260000Y-87730000D01*
D54*
X96260000Y-88154264D02*
X97430000Y-89324264D01*
X96260000Y-87730000D02*
X96260000Y-88154264D01*
X97430000Y-89324264D02*
X97430000Y-96670000D01*
X97430000Y-96670000D02*
X99820000Y-99060000D01*
X99820000Y-99060000D02*
X99820000Y-126720000D01*
X99820000Y-126720000D02*
X119850000Y-146750000D01*
X119850000Y-146750000D02*
X132870000Y-146750000D01*
X132870000Y-146750000D02*
X142590000Y-156470000D01*
X167822000Y-156470000D02*
X167842000Y-156450000D01*
X142590000Y-156470000D02*
X167822000Y-156470000D01*
X167842000Y-156450000D02*
X169300000Y-156450000D01*
X170015780Y-155734220D02*
X170015780Y-154276220D01*
X169300000Y-156450000D02*
X170015780Y-155734220D01*
D53*
X194560000Y-125030000D02*
X194560000Y-125580000D01*
D56*
X194560000Y-125580000D02*
X199430000Y-125580000D01*
X199430000Y-125580000D02*
X200230000Y-124780000D01*
X220170000Y-124780000D02*
X221365000Y-125975000D01*
X200230000Y-124780000D02*
X220170000Y-124780000D01*
D53*
X167540000Y-124120000D02*
X168130000Y-124120000D01*
X150525000Y-88775000D02*
X150525000Y-89305000D01*
D56*
X150824999Y-88475001D02*
X150824999Y-84984999D01*
X150525000Y-88775000D02*
X150824999Y-88475001D01*
X150824999Y-84984999D02*
X146840000Y-81000000D01*
X146840000Y-81000000D02*
X146840000Y-79960000D01*
X146840000Y-79370000D02*
X146840000Y-79370000D01*
X146840000Y-79960000D02*
X146840000Y-79370000D01*
X153705009Y-97875009D02*
X159190000Y-103360000D01*
X150525000Y-88775000D02*
X151925000Y-88775000D01*
X151925000Y-88775000D02*
X153205000Y-90055000D01*
X167540000Y-123695736D02*
X167540000Y-124120000D01*
X153205000Y-93705000D02*
X152829999Y-94080001D01*
X167540000Y-113640000D02*
X167540000Y-123695736D01*
X159190000Y-103360000D02*
X159190000Y-105290000D01*
X153705009Y-96743599D02*
X153705009Y-97875009D01*
X153205000Y-90055000D02*
X153205000Y-93705000D01*
X152829999Y-94080001D02*
X152829999Y-95868589D01*
X159190000Y-105290000D02*
X167540000Y-113640000D01*
X152829999Y-95868589D02*
X153705009Y-96743599D01*
D53*
X150525000Y-89380000D02*
X150525000Y-88775000D01*
X96815000Y-109315000D02*
X97665000Y-108465000D01*
D54*
X137290000Y-157620000D02*
X173410000Y-157620000D01*
X133380000Y-153710000D02*
X137290000Y-157620000D01*
X96515001Y-109614999D02*
X96515001Y-155465001D01*
X175095780Y-155934220D02*
X175095780Y-154276220D01*
X98690000Y-157640000D02*
X125560000Y-157640000D01*
X96815000Y-109315000D02*
X96515001Y-109614999D01*
X125560000Y-157640000D02*
X129490000Y-153710000D01*
X173410000Y-157620000D02*
X175095780Y-155934220D01*
X129490000Y-153710000D02*
X133380000Y-153710000D01*
X96515001Y-155465001D02*
X98690000Y-157640000D01*
D53*
X128450000Y-41860000D02*
X128450000Y-41860000D01*
D57*
X128450000Y-41080000D02*
X128450000Y-41860000D01*
D53*
X177095000Y-78835000D02*
X177090000Y-78830000D01*
X171855000Y-82925000D02*
X171855000Y-83159315D01*
X128450000Y-39730000D02*
X128450000Y-41080000D01*
X129240000Y-38950000D02*
X128460000Y-39730000D01*
X143850000Y-37290000D02*
X142190000Y-38950000D01*
X171120000Y-46750000D02*
X169370000Y-45000000D01*
X142190000Y-38950000D02*
X129240000Y-38950000D01*
X128460000Y-39730000D02*
X128450000Y-39730000D01*
X152870000Y-37290000D02*
X143850000Y-37290000D01*
X169370000Y-45000000D02*
X163190000Y-45000000D01*
X163190000Y-45000000D02*
X157790000Y-39600000D01*
X155180000Y-39600000D02*
X152870000Y-37290000D01*
X157790000Y-39600000D02*
X155180000Y-39600000D01*
X101640000Y-51800000D02*
X101640000Y-51020000D01*
D54*
X208310000Y-105790000D02*
X208310000Y-106390000D01*
X208609999Y-106689999D02*
X208609999Y-108069999D01*
X208310000Y-106390000D02*
X208609999Y-106689999D01*
X208609999Y-108069999D02*
X209960000Y-109420000D01*
X209960000Y-117075000D02*
X208680000Y-118355000D01*
X209960000Y-109420000D02*
X209960000Y-117075000D01*
D53*
X136905000Y-67130000D02*
X136930000Y-67105000D01*
X136130000Y-67130000D02*
X136905000Y-67130000D01*
D54*
X140644000Y-77354000D02*
X145920000Y-82630000D01*
X140644000Y-68736000D02*
X140644000Y-77354000D01*
X136130000Y-67130000D02*
X139038000Y-67130000D01*
X139038000Y-67130000D02*
X140644000Y-68736000D01*
D53*
X145920000Y-83350000D02*
X145920000Y-82630000D01*
X145920000Y-83350000D02*
X146940000Y-83350000D01*
X146220000Y-82630000D02*
X146940000Y-83350000D01*
X145920000Y-82630000D02*
X146220000Y-82630000D01*
D56*
X154429999Y-68500001D02*
X156599999Y-68500001D01*
X154130000Y-68800000D02*
X154429999Y-68500001D01*
X156599999Y-68500001D02*
X158110000Y-66990000D01*
X158110000Y-66990000D02*
X158110000Y-63870000D01*
X158110000Y-63870000D02*
X156320000Y-62080000D01*
X156320000Y-62080000D02*
X150910000Y-62080000D01*
X150005000Y-61175000D02*
X150005000Y-59505000D01*
X150910000Y-62080000D02*
X150005000Y-61175000D01*
X153705736Y-68800000D02*
X153290000Y-69215736D01*
X154130000Y-68800000D02*
X153705736Y-68800000D01*
X153290000Y-69215736D02*
X153290000Y-80100000D01*
X153290000Y-80100000D02*
X153700000Y-80510000D01*
X153700000Y-80510000D02*
X157790000Y-80510000D01*
X159840000Y-82560000D02*
X159840000Y-87240000D01*
X157790000Y-80510000D02*
X159840000Y-82560000D01*
X159840000Y-87805685D02*
X159850000Y-87815685D01*
X159840000Y-87240000D02*
X159840000Y-87805685D01*
X159850000Y-87815685D02*
X159850000Y-95370000D01*
X159850000Y-95370000D02*
X161060000Y-96580000D01*
X161060000Y-96580000D02*
X171780000Y-96580000D01*
X171780000Y-96580000D02*
X174550000Y-99350000D01*
X174550000Y-99350000D02*
X174550000Y-111740000D01*
X174550000Y-111740000D02*
X180320000Y-117510000D01*
X180320000Y-117510000D02*
X180320000Y-134330000D01*
D53*
X157205000Y-68800000D02*
X157220000Y-68815000D01*
X154130000Y-68800000D02*
X157205000Y-68800000D01*
D55*
X114552500Y-104380000D02*
X117800000Y-104380000D01*
D59*
X112560000Y-106820000D02*
X106440000Y-112940000D01*
D55*
X112560000Y-106820000D02*
X112550000Y-106820000D01*
D59*
X112560000Y-106820000D02*
X113790000Y-106820000D01*
D57*
X115410000Y-104945685D02*
X115400000Y-104955685D01*
X115420000Y-104480000D02*
X115420000Y-105045685D01*
D59*
X115400000Y-105210000D02*
X113790000Y-106820000D01*
D57*
X115400000Y-104955685D02*
X115400000Y-105210000D01*
D58*
X162996000Y-125632000D02*
X162996000Y-124870000D01*
X206530000Y-104100000D02*
X207130000Y-104100000D01*
X173180000Y-41550000D02*
X173110000Y-41550000D01*
X173260000Y-41550000D02*
X173180000Y-41550000D01*
X173750000Y-41550000D02*
X173260000Y-41550000D01*
X230720000Y-50170000D02*
X222100000Y-41550000D01*
X222100000Y-41550000D02*
X173750000Y-41550000D01*
X207429999Y-103800001D02*
X207429999Y-101140001D01*
X207130000Y-104100000D02*
X207429999Y-103800001D01*
X207429999Y-101140001D02*
X220850000Y-87720000D01*
X220850000Y-87720000D02*
X228620000Y-87720000D01*
X228620000Y-87720000D02*
X230720000Y-85620000D01*
X230720000Y-85620000D02*
X230720000Y-50170000D01*
X163120010Y-36710010D02*
X159175685Y-36710010D01*
X167960000Y-41550000D02*
X163120010Y-36710010D01*
D53*
X156980000Y-36710010D02*
X158610000Y-36710010D01*
D58*
X159175685Y-36710010D02*
X158610000Y-36710010D01*
X173260000Y-41550000D02*
X167960000Y-41550000D01*
X164175000Y-114885000D02*
X164160000Y-114900000D01*
X164755000Y-114885000D02*
X164175000Y-114885000D01*
X141000000Y-85550000D02*
X139550000Y-85550000D01*
D60*
X141870000Y-85590000D02*
X146720000Y-90440000D01*
X141040000Y-85590000D02*
X141870000Y-85590000D01*
X159132265Y-111729104D02*
X159041175Y-111671234D01*
X159041175Y-111671234D02*
X158945808Y-111620724D01*
X158945808Y-111620724D02*
X158846758Y-111577886D01*
X158846758Y-111577886D02*
X158744639Y-111542988D01*
X158744639Y-111542988D02*
X158640088Y-111516247D01*
X158640088Y-111516247D02*
X158533754Y-111497828D01*
X158533754Y-111497828D02*
X158426299Y-111487846D01*
X158426299Y-111487846D02*
X158318392Y-111486364D01*
X158318392Y-111486364D02*
X158210704Y-111493390D01*
X158210704Y-111493390D02*
X158103905Y-111508882D01*
X158103905Y-111508882D02*
X157998658Y-111532742D01*
X157998658Y-111532742D02*
X157895620Y-111564822D01*
X157895620Y-111564822D02*
X157795430Y-111604923D01*
X157256911Y-111798040D02*
X157161290Y-111783134D01*
X157161290Y-111783134D02*
X157066773Y-111762346D01*
X157066773Y-111762346D02*
X156973722Y-111735755D01*
X156973722Y-111735755D02*
X156882493Y-111703463D01*
X156882493Y-111703463D02*
X156793434Y-111665594D01*
X156793434Y-111665594D02*
X156706887Y-111622291D01*
X156706887Y-111622291D02*
X156623182Y-111573721D01*
X156623182Y-111573721D02*
X156542640Y-111520071D01*
X156542640Y-111520071D02*
X150810000Y-107440000D01*
X157293864Y-111783134D02*
X157161290Y-111783134D01*
X157303864Y-111793134D02*
X157810000Y-111600000D01*
X150250000Y-106280000D02*
X150251744Y-106351075D01*
X150251744Y-106351075D02*
X150256975Y-106421980D01*
X150256975Y-106421980D02*
X150265678Y-106492543D01*
X150265678Y-106492543D02*
X150277833Y-106562593D01*
X150277833Y-106562593D02*
X150293410Y-106631963D01*
X150293410Y-106631963D02*
X150312373Y-106700485D01*
X150312373Y-106700485D02*
X150334675Y-106767994D01*
X150334675Y-106767994D02*
X150360262Y-106834327D01*
X150360262Y-106834327D02*
X150389074Y-106899325D01*
X150389074Y-106899325D02*
X150421040Y-106962831D01*
X150421040Y-106962831D02*
X150456084Y-107024692D01*
X150456084Y-107024692D02*
X150494120Y-107084759D01*
X150494120Y-107084759D02*
X150535059Y-107142887D01*
X150535059Y-107142887D02*
X150578800Y-107198936D01*
X150578800Y-107198936D02*
X150625239Y-107252771D01*
X150625239Y-107252771D02*
X150674264Y-107304264D01*
X150674264Y-107304264D02*
X150810000Y-107440000D01*
X150250000Y-92830000D02*
X150250000Y-106280000D01*
X162511421Y-114111421D02*
X162482960Y-114083468D01*
X162482960Y-114083468D02*
X162454001Y-114056033D01*
X162454001Y-114056033D02*
X162424553Y-114029122D01*
X162424553Y-114029122D02*
X162394626Y-114002747D01*
X162394626Y-114002747D02*
X162364229Y-113976914D01*
X162364229Y-113976914D02*
X162333372Y-113951632D01*
X162333372Y-113951632D02*
X162302065Y-113926910D01*
X162302065Y-113926910D02*
X162270318Y-113902755D01*
X162270318Y-113902755D02*
X162238141Y-113879175D01*
X162238141Y-113879175D02*
X162205546Y-113856179D01*
X162205546Y-113856179D02*
X159132265Y-111729104D01*
X163600000Y-114900000D02*
X164160000Y-114900000D01*
X163600000Y-114900000D02*
X163543174Y-114897767D01*
X163543174Y-114897767D02*
X163486699Y-114891083D01*
X163486699Y-114891083D02*
X163430923Y-114879988D01*
X163430923Y-114879988D02*
X163376189Y-114864551D01*
X163376189Y-114864551D02*
X163322835Y-114844868D01*
X163322835Y-114844868D02*
X163271190Y-114821059D01*
X163271190Y-114821059D02*
X163221572Y-114793272D01*
X163221572Y-114793272D02*
X163174287Y-114761677D01*
X163174287Y-114761677D02*
X163129626Y-114726470D01*
X163129626Y-114726470D02*
X163087867Y-114687867D01*
X163087867Y-114687867D02*
X162511421Y-114111421D01*
D54*
X150250000Y-92830000D02*
X150250000Y-92675000D01*
D60*
X150250000Y-92675000D02*
X148655000Y-91080000D01*
X147360000Y-91080000D02*
X146720000Y-90440000D01*
X148655000Y-91080000D02*
X147360000Y-91080000D01*
D53*
X126960000Y-49090000D02*
X126410000Y-48540000D01*
X126960000Y-49110000D02*
X126960000Y-49090000D01*
X139240000Y-73730000D02*
X139240000Y-72940000D01*
D56*
X139240000Y-72374315D02*
X135056000Y-68190315D01*
X139240000Y-72940000D02*
X139240000Y-72374315D01*
X135056000Y-68190315D02*
X135056000Y-62640000D01*
X135056000Y-62640000D02*
X128706000Y-56290000D01*
X128706000Y-50836000D02*
X126410000Y-48540000D01*
X128706000Y-56290000D02*
X128706000Y-50836000D01*
D53*
X72280000Y-72230000D02*
X71180000Y-71130000D01*
X72280000Y-78930000D02*
X72280000Y-72230000D01*
D58*
X89255000Y-99330000D02*
X88955000Y-99630000D01*
X89255000Y-98505000D02*
X89255000Y-99330000D01*
X88955000Y-100380000D02*
X88980000Y-100405000D01*
X88955000Y-99630000D02*
X88955000Y-100380000D01*
X84045011Y-90295011D02*
X81479999Y-87729999D01*
D53*
X88955000Y-99630000D02*
X88180000Y-98855000D01*
X86736998Y-98855000D02*
X85130000Y-97248002D01*
X88180000Y-98855000D02*
X86736998Y-98855000D01*
X85130000Y-97248002D02*
X85130000Y-95630000D01*
X81479999Y-87729999D02*
X81080000Y-87330000D01*
X84554999Y-90804999D02*
X81479999Y-87729999D01*
X84554999Y-95054999D02*
X84554999Y-90804999D01*
X85130000Y-95630000D02*
X84554999Y-95054999D01*
D61*
X63540000Y-95040000D02*
X70160000Y-101660000D01*
X70160000Y-55720000D02*
X63540000Y-62340000D01*
X63540000Y-62340000D02*
X63540000Y-95040000D01*
D55*
X130940000Y-103650000D02*
X131815000Y-104525000D01*
X130940000Y-103550000D02*
X130940000Y-103650000D01*
X131217500Y-105122500D02*
X131815000Y-104525000D01*
X131217500Y-105227500D02*
X131217500Y-105122500D01*
D54*
X131217500Y-105793185D02*
X122540000Y-114470685D01*
X131217500Y-105227500D02*
X131217500Y-105793185D01*
X122540000Y-114470685D02*
X122540000Y-122960000D01*
X122540000Y-122960000D02*
X135710000Y-136130000D01*
X135710000Y-136130000D02*
X159540000Y-136130000D01*
X159540000Y-136130000D02*
X160670000Y-135000000D01*
X160670000Y-135000000D02*
X160670000Y-125150000D01*
D55*
X160670000Y-125150000D02*
X160730000Y-125090000D01*
X160730000Y-125090000D02*
X161280000Y-124540000D01*
X89020000Y-43500000D02*
X89910000Y-43500000D01*
D53*
X65450000Y-48290000D02*
X66560000Y-48290000D01*
D58*
X66959999Y-47890001D02*
X77239999Y-47890001D01*
X66560000Y-48290000D02*
X66959999Y-47890001D01*
X77239999Y-47890001D02*
X78680000Y-46450000D01*
X78680000Y-46450000D02*
X81050000Y-46450000D01*
X84000000Y-43500000D02*
X89910000Y-43500000D01*
X81050000Y-46450000D02*
X84000000Y-43500000D01*
D54*
X203035780Y-154276220D02*
X204260781Y-153051219D01*
X202002000Y-147690000D02*
X197955780Y-151736220D01*
X207610000Y-136260000D02*
X201990000Y-141880000D01*
X205089989Y-142170011D02*
X205089989Y-142160000D01*
X204260781Y-142999219D02*
X205089989Y-142170011D01*
X204260781Y-145329219D02*
X204260781Y-142999219D01*
X204260781Y-153051219D02*
X204260781Y-145329219D01*
X231260000Y-99640000D02*
X231660000Y-100040000D01*
X230480000Y-99640000D02*
X231260000Y-99640000D01*
X229930000Y-100190000D02*
X230480000Y-99640000D01*
X228740000Y-102170000D02*
X229690000Y-101220000D01*
X229690000Y-101220000D02*
X229930000Y-101010000D01*
X197955780Y-151736220D02*
X201990000Y-147702000D01*
X201990000Y-141890000D02*
X208430000Y-135450000D01*
X231660000Y-100040000D02*
X231660000Y-102670000D01*
X229930000Y-101010000D02*
X229930000Y-100190000D01*
X201990000Y-147702000D02*
X201990000Y-141890000D01*
X208430000Y-135450000D02*
X212390000Y-135450000D01*
X212390000Y-135450000D02*
X213010000Y-135450000D01*
X213010000Y-135450000D02*
X223180000Y-135450000D01*
X223180000Y-135450000D02*
X223240000Y-135450000D01*
X224980000Y-134110000D02*
X224980000Y-106090000D01*
D53*
X231660000Y-102670000D02*
X231660000Y-103240000D01*
D54*
X224470000Y-138230000D02*
X209030000Y-138230000D01*
X209030000Y-138230000D02*
X204260781Y-142999219D01*
X227400000Y-135300000D02*
X224470000Y-138230000D01*
X227400000Y-130690000D02*
X227400000Y-135300000D01*
X229910000Y-103240000D02*
X226805000Y-106345000D01*
X231660000Y-103240000D02*
X229910000Y-103240000D01*
X226805000Y-106345000D02*
X226805000Y-106730000D01*
X226410000Y-129700000D02*
X227400000Y-130690000D01*
X226805000Y-106730000D02*
X226830000Y-124530000D01*
X226830000Y-124530000D02*
X226410000Y-124950000D01*
X226410000Y-124950000D02*
X226410000Y-129700000D01*
X223510000Y-135450000D02*
X224980000Y-134120000D01*
X223180000Y-135450000D02*
X223510000Y-135450000D01*
X224980000Y-106080000D02*
X229930000Y-101010000D01*
D53*
X83220001Y-95960001D02*
X83220001Y-93070001D01*
X83620000Y-96360000D02*
X83220001Y-95960001D01*
X83220001Y-93070001D02*
X77480000Y-87330000D01*
X77480000Y-87330000D02*
X76480000Y-87330000D01*
X74720000Y-85570000D02*
X74720000Y-79270000D01*
X76480000Y-87330000D02*
X74720000Y-85570000D01*
X74720000Y-79270000D02*
X75180000Y-78810000D01*
X79135000Y-74855000D02*
X80855000Y-74855000D01*
X75180000Y-78810000D02*
X79135000Y-74855000D01*
D58*
X170015780Y-150534139D02*
X164774000Y-145292359D01*
X170015780Y-151736220D02*
X170015780Y-150534139D01*
X164774000Y-131474000D02*
X162996000Y-129696000D01*
X164774000Y-145292359D02*
X164774000Y-131474000D01*
X162996000Y-128934000D02*
X162996000Y-129696000D01*
D62*
X189055000Y-152936221D02*
X189055000Y-150395781D01*
X190394999Y-154269999D02*
X189055000Y-152930000D01*
D56*
X189055000Y-150395781D02*
X189055000Y-144105000D01*
X189055000Y-144105000D02*
X189720000Y-143440000D01*
X189720000Y-131740000D02*
X190770000Y-130690000D01*
X189720000Y-143440000D02*
X189720000Y-131740000D01*
X186390000Y-135650000D02*
X186110000Y-135650000D01*
D55*
X186130000Y-135650000D02*
X185350000Y-135650000D01*
D53*
X186110000Y-135650000D02*
X185360000Y-135650000D01*
D56*
X182715780Y-151736220D02*
X182715780Y-150534139D01*
X185360000Y-135650000D02*
X185360000Y-144900000D01*
X182715780Y-147544220D02*
X182715780Y-151736220D01*
X185360000Y-144900000D02*
X182715780Y-147544220D01*
D53*
X218225000Y-64735000D02*
X218635000Y-65145000D01*
X198960000Y-64200000D02*
X198970000Y-64210000D01*
X198390000Y-64200000D02*
X198960000Y-64200000D01*
X178642751Y-63847500D02*
X179158939Y-63847500D01*
D56*
X198090001Y-63900001D02*
X198090001Y-63890001D01*
X198390000Y-64200000D02*
X198090001Y-63900001D01*
X198090001Y-63890001D02*
X194990000Y-60790000D01*
X182216439Y-60790000D02*
X179158939Y-63847500D01*
X194990000Y-60790000D02*
X182216439Y-60790000D01*
X175350000Y-62850000D02*
X177645251Y-62850000D01*
X174600000Y-63600000D02*
X175350000Y-62850000D01*
X174600000Y-65510000D02*
X174600000Y-63600000D01*
X186743947Y-86726053D02*
X188280000Y-85190000D01*
X186743947Y-88356053D02*
X186743947Y-86726053D01*
X188280000Y-85190000D02*
X188280000Y-73380000D01*
X177645251Y-62850000D02*
X178642751Y-63847500D01*
X188280000Y-73380000D02*
X182120000Y-67220000D01*
X182120000Y-67220000D02*
X176310000Y-67220000D01*
X176310000Y-67220000D02*
X174600000Y-65510000D01*
X201900000Y-61280000D02*
X201680000Y-61500000D01*
X201680000Y-61500000D02*
X198970000Y-64210000D01*
X218225000Y-64735000D02*
X215260000Y-61770000D01*
X215260000Y-61770000D02*
X215260000Y-61750000D01*
X201770000Y-61410000D02*
X201680000Y-61500000D01*
X215260000Y-61750000D02*
X214790000Y-61280000D01*
X214790000Y-61280000D02*
X201900000Y-61280000D01*
D53*
X186743947Y-88356053D02*
X186743947Y-88927011D01*
X186743947Y-88927011D02*
X186734990Y-88935968D01*
X179158939Y-63847500D02*
X178550000Y-63847500D01*
X155640000Y-83860000D02*
X155650000Y-83850000D01*
X154120000Y-83860000D02*
X155640000Y-83860000D01*
D56*
X168790000Y-100570000D02*
X170580000Y-102360000D01*
X155289999Y-84259999D02*
X155289999Y-84269999D01*
X155370000Y-84350000D02*
X155370000Y-98260000D01*
X154890000Y-83860000D02*
X155289999Y-84259999D01*
X157680000Y-100570000D02*
X168790000Y-100570000D01*
X155289999Y-84269999D02*
X155370000Y-84350000D01*
X155370000Y-98260000D02*
X157680000Y-100570000D01*
X170580000Y-102360000D02*
X170590000Y-113650000D01*
X170590000Y-113650000D02*
X170580000Y-115030000D01*
X173340000Y-138570000D02*
X175690000Y-140920000D01*
X173340000Y-122680000D02*
X173340000Y-138570000D01*
X181360000Y-140920000D02*
X182160000Y-140120000D01*
X175690000Y-140920000D02*
X175690000Y-140930000D01*
X175690000Y-140930000D02*
X176650000Y-141890000D01*
X180390000Y-141890000D02*
X182160000Y-140120000D01*
X176650000Y-141890000D02*
X180390000Y-141890000D01*
X151370000Y-65320000D02*
X154710000Y-65320000D01*
X148370000Y-81160000D02*
X148390000Y-68370000D01*
X172872500Y-122212500D02*
X173340000Y-122680000D01*
D53*
X172472500Y-121812500D02*
X172872500Y-122212500D01*
D56*
X153554315Y-83860000D02*
X153549315Y-83855000D01*
X154120000Y-83860000D02*
X153554315Y-83860000D01*
X153549315Y-83855000D02*
X150845000Y-83855000D01*
X151370000Y-65340202D02*
X151370000Y-65320000D01*
X148390000Y-68370000D02*
X148390000Y-68320202D01*
X148390000Y-68320202D02*
X151370000Y-65340202D01*
X148370000Y-81380000D02*
X150845000Y-83855000D01*
X148370000Y-81160000D02*
X148370000Y-81380000D01*
D55*
X182160000Y-140120000D02*
X182160000Y-139320000D01*
D56*
X170580000Y-115030000D02*
X170580000Y-116930000D01*
X170580000Y-116930000D02*
X169690000Y-117820000D01*
X169690000Y-119030000D02*
X170670000Y-120010000D01*
X169690000Y-117820000D02*
X169690000Y-119030000D01*
X170590000Y-119930000D02*
X170670000Y-120010000D01*
X170670000Y-120010000D02*
X172472500Y-121812500D01*
D53*
X188710000Y-141870000D02*
X188710000Y-142330000D01*
D56*
X188710000Y-141870000D02*
X188710000Y-131141101D01*
X188700000Y-131131101D02*
X188700000Y-130990000D01*
X188710000Y-131141101D02*
X188700000Y-131131101D01*
X188700000Y-130990000D02*
X188700000Y-130390000D01*
D53*
X188710000Y-142330000D02*
X188710000Y-141730000D01*
X215340000Y-64710000D02*
X215340000Y-65270000D01*
X195790000Y-64120000D02*
X195790000Y-64640000D01*
D56*
X215340000Y-64285736D02*
X213624264Y-62570000D01*
X215340000Y-64710000D02*
X215340000Y-64285736D01*
X213624264Y-62570000D02*
X202950000Y-62570000D01*
X202950000Y-62570000D02*
X200110000Y-65410000D01*
X196560000Y-65410000D02*
X195610000Y-64460000D01*
X200110000Y-65410000D02*
X196560000Y-65410000D01*
X193800000Y-62130000D02*
X182750000Y-62130000D01*
X182750000Y-62130000D02*
X179630000Y-65250000D01*
X176300000Y-65250000D02*
X175870000Y-64820000D01*
X179630000Y-65250000D02*
X176300000Y-65250000D01*
X176680000Y-65940000D02*
X175990000Y-65250000D01*
X175990000Y-65250000D02*
X176300000Y-65250000D01*
D53*
X175870000Y-64250000D02*
X175870000Y-64970000D01*
D56*
X195400000Y-63730000D02*
X195790000Y-64120000D01*
X195610000Y-63940000D02*
X195400000Y-63730000D01*
X195400000Y-63730000D02*
X193800000Y-62130000D01*
X192650000Y-74050000D02*
X192650000Y-79100000D01*
X189470000Y-86865565D02*
X188289366Y-88046199D01*
X189470000Y-82280000D02*
X189470000Y-86865565D01*
X188289366Y-88046199D02*
X187989367Y-88346198D01*
D53*
X187995010Y-88351841D02*
X187989367Y-88346198D01*
D56*
X176560000Y-65810000D02*
X176870000Y-66120000D01*
D53*
X187995010Y-88921313D02*
X187995010Y-88351841D01*
D56*
X176870000Y-66120000D02*
X184720000Y-66120000D01*
X184720000Y-66120000D02*
X192650000Y-74050000D01*
X192650000Y-79100000D02*
X189470000Y-82280000D01*
D63*
X215340000Y-65160000D02*
X218660000Y-68480000D01*
X215340000Y-64710000D02*
X215340000Y-65160000D01*
X218660000Y-68480000D02*
X219200000Y-68480000D01*
D53*
X195790000Y-64640000D02*
X195790000Y-64040000D01*
X219140000Y-68420000D02*
X219200000Y-68480000D01*
X218570000Y-68420000D02*
X219140000Y-68420000D01*
X190690000Y-135460000D02*
X190690000Y-136020000D01*
X190660000Y-142320000D02*
X190660000Y-141760000D01*
D56*
X190690000Y-141730000D02*
X190660000Y-141760000D01*
X190690000Y-142290000D02*
X190660000Y-142320000D01*
X190690000Y-136020000D02*
X190690000Y-142290000D01*
D53*
X194890000Y-132240000D02*
X194890000Y-132820000D01*
X194850000Y-141750000D02*
X194850000Y-142340000D01*
D56*
X194850000Y-141325736D02*
X193880000Y-140355736D01*
X194850000Y-141750000D02*
X194850000Y-141325736D01*
X193880000Y-140355736D02*
X193880000Y-138870000D01*
X193880000Y-138870000D02*
X194900000Y-137850000D01*
X194900000Y-137850000D02*
X194900000Y-135600000D01*
X194890000Y-137840000D02*
X194900000Y-137850000D01*
X194890000Y-132820000D02*
X194890000Y-137840000D01*
D53*
X196820000Y-132160000D02*
X196820000Y-132850000D01*
D56*
X196800000Y-132210000D02*
X196820000Y-132190000D01*
D54*
X196800000Y-132780000D02*
X196820000Y-132760000D01*
X196800000Y-141760000D02*
X196800000Y-132780000D01*
D55*
X196800000Y-142340000D02*
X196800000Y-141760000D01*
D53*
X154080000Y-81670000D02*
X154090000Y-81660000D01*
X152530000Y-81670000D02*
X154080000Y-81670000D01*
D56*
X170980000Y-98160000D02*
X172870000Y-100050000D01*
X170620000Y-97800000D02*
X171120000Y-98300000D01*
X165430000Y-97800000D02*
X170620000Y-97800000D01*
X154090000Y-81660000D02*
X156810000Y-81660000D01*
X159680000Y-97800000D02*
X165430000Y-97800000D01*
X158060000Y-96180000D02*
X159680000Y-97800000D01*
X158060000Y-82910000D02*
X158060000Y-96180000D01*
X156810000Y-81660000D02*
X158060000Y-82910000D01*
X172790000Y-99970000D02*
X173370000Y-100550000D01*
X173370000Y-112710000D02*
X178900000Y-118240000D01*
X173370000Y-100550000D02*
X173370000Y-112710000D01*
X178900000Y-118240000D02*
X178901185Y-120183815D01*
X178910000Y-134650000D02*
X178900000Y-134960000D01*
X178880000Y-139210000D02*
X178890000Y-139200000D01*
D55*
X178880000Y-140790000D02*
X178880000Y-139210000D01*
D56*
X178910000Y-134650000D02*
X178910000Y-138550000D01*
X178910000Y-138390000D02*
X178910000Y-140600000D01*
X152540000Y-81660000D02*
X152530000Y-81670000D01*
X154090000Y-81660000D02*
X152540000Y-81660000D01*
X151480000Y-63040000D02*
X155450000Y-63040000D01*
X155450000Y-63040000D02*
X156800000Y-64390000D01*
X156800000Y-64390000D02*
X156800000Y-66440000D01*
X156800000Y-66440000D02*
X155790000Y-67450000D01*
X155790000Y-67450000D02*
X152610000Y-67450000D01*
X152610000Y-67450000D02*
X151740000Y-68320000D01*
X151740000Y-80880000D02*
X152530000Y-81670000D01*
X151740000Y-68320000D02*
X151740000Y-80880000D01*
X178905926Y-127964074D02*
X178910000Y-134650000D01*
X178905573Y-127384427D02*
X178905926Y-127964074D01*
D58*
X178905926Y-127384780D02*
X178905573Y-127384427D01*
D53*
X178905926Y-127964074D02*
X178905926Y-127384780D01*
D56*
X178901185Y-120183815D02*
X178901520Y-120733480D01*
X178901520Y-120733480D02*
X178905573Y-127384427D01*
D53*
X178901520Y-120184150D02*
X178901185Y-120183815D01*
X178901520Y-120790000D02*
X178901520Y-120184150D01*
X154050000Y-82750000D02*
X154060000Y-82740000D01*
X152520000Y-82750000D02*
X154050000Y-82750000D01*
D56*
X177160000Y-133290000D02*
X177150000Y-133300000D01*
D53*
X177160000Y-131710000D02*
X177160000Y-133290000D01*
D56*
X156070000Y-82740000D02*
X154060000Y-82740000D01*
X156760000Y-83430000D02*
X156070000Y-82740000D01*
X156760000Y-97260000D02*
X156760000Y-83430000D01*
X172000000Y-101240000D02*
X169920000Y-99160000D01*
X169920000Y-99160000D02*
X158660000Y-99160000D01*
X158660000Y-99160000D02*
X156760000Y-97260000D01*
X171980000Y-113560000D02*
X172000000Y-101240000D01*
X171980000Y-116100000D02*
X171980000Y-113560000D01*
X172000000Y-113820000D02*
X171980000Y-113560000D01*
X177160000Y-131710000D02*
X177160000Y-118920000D01*
X177160000Y-118920000D02*
X175540000Y-117300000D01*
X175540000Y-117300000D02*
X173180000Y-117300000D01*
X173180000Y-117300000D02*
X171980000Y-116100000D01*
X151370000Y-82740000D02*
X149810000Y-81180000D01*
X154060000Y-82740000D02*
X151370000Y-82740000D01*
X149810000Y-81180000D02*
X149810000Y-68520000D01*
X149810000Y-68520000D02*
X151980000Y-66350000D01*
X151980000Y-66350000D02*
X155160000Y-66350000D01*
X155160000Y-66350000D02*
X155670000Y-65840000D01*
X155670000Y-64870000D02*
X154740000Y-63940000D01*
X155670000Y-65840000D02*
X155670000Y-64870000D01*
X154740000Y-63940000D02*
X152230000Y-63940000D01*
D58*
X144005000Y-72030000D02*
X144005000Y-71455000D01*
D56*
X158530000Y-110430000D02*
X163655000Y-113730000D01*
X151455000Y-105630000D02*
X158530000Y-110430000D01*
X151455000Y-102505000D02*
X151455000Y-105630000D01*
X152930000Y-101030000D02*
X151455000Y-102505000D01*
X144005000Y-79155000D02*
X149380000Y-84530000D01*
X152930000Y-96605000D02*
X152930000Y-101030000D01*
X144005000Y-72030000D02*
X144005000Y-79155000D01*
X152280000Y-95955000D02*
X152930000Y-96605000D01*
X149380000Y-84530000D02*
X149380000Y-89430000D01*
X149380000Y-89430000D02*
X152280000Y-92330000D01*
X152280000Y-92330000D02*
X152280000Y-95955000D01*
X163655000Y-113730000D02*
X165155000Y-113730000D01*
X165155000Y-113730000D02*
X166480000Y-115055000D01*
X166480000Y-115055000D02*
X166480000Y-129780000D01*
X166480000Y-129780000D02*
X172030000Y-135330000D01*
X172030000Y-135330000D02*
X172030000Y-135330000D01*
D53*
X172030000Y-135930000D02*
X172030000Y-135330000D01*
X193415000Y-127035000D02*
X193415000Y-126460000D01*
D56*
X194660000Y-127035000D02*
X193415000Y-127035000D01*
X195080000Y-127455000D02*
X194660000Y-127035000D01*
X206125000Y-125975000D02*
X204645000Y-127455000D01*
X204645000Y-127455000D02*
X195080000Y-127455000D01*
D54*
X186530000Y-153050000D02*
X186530000Y-144558002D01*
X187795780Y-154276220D02*
X186570779Y-153051219D01*
X186540000Y-144550000D02*
X187409221Y-143680779D01*
D55*
X187410000Y-141690000D02*
X187420000Y-141680000D01*
X187410000Y-142280000D02*
X187410000Y-141690000D01*
D54*
X187410000Y-143680000D02*
X187409221Y-143680779D01*
X187410000Y-142280000D02*
X187410000Y-143680000D01*
D53*
X188060000Y-138990000D02*
X188050000Y-138980000D01*
X188060000Y-139580000D02*
X188060000Y-138990000D01*
D56*
X188050000Y-138555736D02*
X188070000Y-138535736D01*
X188050000Y-138980000D02*
X188050000Y-138555736D01*
X188070000Y-138535736D02*
X188070000Y-123330000D01*
X188070000Y-123330000D02*
X198850000Y-112550000D01*
X198850000Y-112550000D02*
X198850000Y-110200000D01*
X198850000Y-110200000D02*
X200640000Y-108410000D01*
X200640000Y-108410000D02*
X202470000Y-108410000D01*
X203260000Y-108410000D02*
X203460000Y-108410000D01*
D55*
X202470000Y-108410000D02*
X203260000Y-108410000D01*
D53*
X195820000Y-134560000D02*
X195810000Y-134550000D01*
X195820000Y-135148001D02*
X195820000Y-134560000D01*
D56*
X195810000Y-134125736D02*
X195820000Y-134115736D01*
X195810000Y-134550000D02*
X195810000Y-134125736D01*
X195820000Y-134115736D02*
X195820000Y-131180000D01*
X195820000Y-131180000D02*
X192190000Y-127550000D01*
X192190000Y-127550000D02*
X192190000Y-120740000D01*
X192190000Y-120740000D02*
X199860000Y-113070000D01*
X199860000Y-113070000D02*
X199860000Y-110150000D01*
X199860000Y-110150000D02*
X200880000Y-109130000D01*
X200880000Y-109130000D02*
X207640000Y-109130000D01*
X207640000Y-109130000D02*
X208580000Y-110070000D01*
X208580000Y-110650000D02*
X208665000Y-110735000D01*
X208580000Y-110070000D02*
X208580000Y-110650000D01*
D57*
X200030000Y-102790000D02*
X201580000Y-102790000D01*
X156260000Y-49280000D02*
X141925000Y-49280000D01*
X168000000Y-55410000D02*
X165420000Y-52830000D01*
X173180000Y-55410000D02*
X168000000Y-55410000D01*
X159810000Y-52830000D02*
X156260000Y-49280000D01*
X178470000Y-42830000D02*
X174910000Y-46390000D01*
X174910000Y-46390000D02*
X174910000Y-53680000D01*
X221130000Y-42830000D02*
X178470000Y-42830000D01*
X204190000Y-102790000D02*
X220435000Y-86545000D01*
X201580000Y-102790000D02*
X204190000Y-102790000D01*
X229060000Y-50760000D02*
X221130000Y-42830000D01*
X141925000Y-49280000D02*
X139895000Y-47250000D01*
X174910000Y-53680000D02*
X173180000Y-55410000D01*
X165420000Y-52830000D02*
X159810000Y-52830000D01*
X220435000Y-86545000D02*
X228135000Y-86545000D01*
X228135000Y-86545000D02*
X229060000Y-85620000D01*
X225584213Y-82040000D02*
X229100000Y-82040000D01*
X225554213Y-82070000D02*
X225584213Y-82040000D01*
X224140000Y-82070000D02*
X224140000Y-82070000D01*
X229060000Y-85620000D02*
X229100000Y-82040000D01*
X229100000Y-82040000D02*
X229060000Y-50760000D01*
X224140000Y-82070000D02*
X225180000Y-82070000D01*
X225180000Y-82070000D02*
X225554213Y-82070000D01*
D58*
X136494315Y-58250000D02*
X137060000Y-58250000D01*
X136300000Y-58250000D02*
X136494315Y-58250000D01*
X134415000Y-56365000D02*
X134415000Y-47250000D01*
X136300000Y-58250000D02*
X134415000Y-56365000D01*
D53*
X169580000Y-87155000D02*
X170180000Y-87155000D01*
D56*
X174285000Y-143080000D02*
X172122500Y-140917500D01*
X183780000Y-143080000D02*
X174285000Y-143080000D01*
X184105000Y-142755000D02*
X183780000Y-143080000D01*
X170180000Y-87155000D02*
X181980000Y-87155000D01*
X184105000Y-141830000D02*
X184105000Y-142755000D01*
X183405001Y-130332001D02*
X183455000Y-130382000D01*
X183405001Y-88580001D02*
X183405001Y-130332001D01*
X183455000Y-130382000D02*
X183455000Y-132205000D01*
X181980000Y-87155000D02*
X183405001Y-88580001D01*
X183455000Y-141180000D02*
X184105000Y-141830000D01*
D53*
X172065000Y-140860000D02*
X172122500Y-140917500D01*
X171390000Y-140860000D02*
X172065000Y-140860000D01*
D56*
X183455000Y-132205000D02*
X183455000Y-141180000D01*
D53*
X183455000Y-132205000D02*
X184055000Y-132205000D01*
D56*
X184055000Y-132205000D02*
X184205000Y-132205000D01*
D53*
X171805000Y-77705000D02*
X172380000Y-77705000D01*
D56*
X185205000Y-131180000D02*
X185155000Y-131230000D01*
D53*
X185605000Y-130780000D02*
X185205000Y-131180000D01*
D56*
X186080000Y-115630000D02*
X186080000Y-130305000D01*
X184164999Y-113714999D02*
X186080000Y-115630000D01*
X186080000Y-130305000D02*
X185605000Y-130780000D01*
X176280000Y-81580000D02*
X182180000Y-81580000D01*
X182205000Y-81555000D02*
X184164999Y-83514999D01*
X172405000Y-77705000D02*
X176280000Y-81580000D01*
X171805000Y-77705000D02*
X172405000Y-77705000D01*
X182180000Y-81580000D02*
X182205000Y-81555000D01*
X184164999Y-83514999D02*
X184164999Y-113714999D01*
M02*
